<svg width="237" height="76" viewBox="0 0 237 76" fill="none" xmlns="http://www.w3.org/2000/svg">
<path d="M168.14 56.4661C171.285 56.4661 173.112 58.5625 173.289 61.1879H162.834C163.404 57.9159 165.193 56.4661 168.14 56.4661ZM173.486 67.6339C172.975 69.6519 171.226 70.6707 168.612 70.6707C165.33 70.6707 163.227 68.6135 162.756 65.3023H179.735C179.774 64.7929 179.833 64.0876 179.833 63.2059C179.833 57.8375 176.512 51.705 168.16 51.705C160.142 51.705 156.487 57.8375 156.487 63.8133C156.487 69.7499 160.614 76.0195 168.632 76.0195C174.449 76.0195 178.949 72.7476 179.892 67.6535H173.486V67.6339ZM145.836 75.9999C151.377 75.9999 155.033 73.061 155.033 68.5743C155.033 57.9159 142.102 63.3823 142.102 58.5821C142.102 57.093 143.36 56.2897 145.187 56.2897C146.975 56.2897 148.803 57.3673 149.078 59.3658H154.758C154.522 54.7419 150.67 51.705 145.01 51.705C140.176 51.705 136.58 54.6439 136.58 58.8172C136.58 68.7311 149.275 64.0092 149.275 68.8094C149.275 70.1222 147.86 71.1018 145.855 71.1018C143.418 71.1018 141.768 69.7891 141.552 67.6927H135.931C136.128 72.7672 140.058 75.9999 145.836 75.9999ZM126.793 75.6277H133.357V52.0773H126.793V75.6277ZM126.616 48.7074H133.553V41.8303H126.616V48.7074ZM88.1185 75.6277H94.9573L101.482 53.8406L108.006 75.6277H114.943L124.651 42.9079H117.517L111.19 65.3023L104.429 42.9079H98.4749L91.7737 65.3023L85.4851 42.9079H78.3516L88.1185 75.6277Z" fill="#0F19A0"/>
<path d="M214.44 33.7974H221.003V20.9054C221.003 17.8685 223.028 15.6741 225.877 15.6741C228.589 15.6741 230.417 17.7314 230.417 20.5723V33.7974H236.98V19.1225C236.98 13.6953 233.522 9.87471 228.176 9.87471C224.934 9.87471 222.32 11.2266 221.003 13.5189V10.2274H214.44V33.7974ZM199.446 28.5661C195.928 28.5661 193.53 25.9015 193.53 22.0222C193.53 18.1036 195.928 15.439 199.446 15.439C202.963 15.439 205.361 18.1036 205.361 22.0222C205.361 25.9015 202.963 28.5661 199.446 28.5661ZM199.446 34.1696C206.717 34.1696 211.924 29.0363 211.924 22.0222C211.924 15.008 206.717 9.87471 199.446 9.87471C192.174 9.87471 186.967 15.008 186.967 22.0222C186.967 29.0363 192.174 34.1696 199.446 34.1696ZM177.888 33.7974H184.451V10.2274H177.888V33.7974ZM177.691 6.87703H184.628V0H177.691V6.87703ZM166.077 34.1696C171.619 34.1696 175.274 31.2307 175.274 26.744C175.274 16.0856 162.343 21.5519 162.343 16.7517C162.343 15.2627 163.601 14.4594 165.428 14.4594C167.217 14.4594 169.044 15.537 169.319 17.5354H174.999C174.763 12.9116 170.911 9.87471 165.252 9.87471C160.417 9.87471 156.821 12.8136 156.821 16.9869C156.821 26.9007 169.536 22.1789 169.536 26.9987C169.536 28.3114 168.121 29.2911 166.116 29.2911C163.679 29.2911 162.029 27.9783 161.812 25.8819H156.192C156.369 30.9368 160.319 34.1696 166.077 34.1696ZM131.156 33.7974H137.719V20.9054C137.719 17.8685 139.744 15.6741 142.593 15.6741C145.305 15.6741 147.133 17.7314 147.133 20.5723V33.7974H153.696V19.1225C153.696 13.6953 150.238 9.87471 144.892 9.87471C141.65 9.87471 139.036 11.2266 137.719 13.5189V10.2274H131.156V33.7974ZM116.908 14.6357C120.053 14.6357 121.88 16.7321 122.057 19.3576H111.602C112.172 16.0856 113.96 14.6357 116.908 14.6357ZM122.253 25.8036C121.743 27.8216 119.994 28.8404 117.38 28.8404C114.098 28.8404 111.995 26.7832 111.524 23.472H128.503C128.542 22.9626 128.601 22.2573 128.601 21.3756C128.601 16.0072 125.28 9.87471 116.928 9.87471C108.91 9.87471 105.255 16.0072 105.255 21.983C105.255 27.9196 109.382 34.1892 117.4 34.1892C123.216 34.1892 127.717 30.9172 128.66 25.8232H122.253V25.8036ZM87.745 15.8897V6.91622H93.7388C97.0207 6.91622 98.4356 9.01263 98.4356 11.4029C98.4356 13.7932 97.0207 15.8897 93.7388 15.8897H87.745ZM80.6704 33.7974H87.745V21.7479H94.1712C101.148 21.7479 105.235 17.3983 105.235 11.4225C105.235 5.38799 101.148 1.09719 94.1712 1.09719H80.6704V33.7974Z" fill="#0F19A0"/>
<path d="M28.5342 75.6278V59.2875V49.8242V75.6278H35.6677H28.5342Z" fill="#009DD4"/>
<path d="M32.0914 38.0294C33.0936 36.5208 34.312 35.1297 35.668 33.9149V9.20856L43.2339 16.7517L48.2844 11.7164L39.6769 3.13483C37.6528 1.11678 34.9605 0 32.111 0C29.2419 0 26.5692 1.11678 24.5451 3.13483L15.918 11.7164L20.9685 16.7517L28.5344 9.20856V33.9149C29.8904 35.1297 31.0891 36.5012 32.0914 38.0294Z" fill="#009DD4"/>
<path d="M14.2278 28.4486H9.21664L16.7826 20.9054L11.7517 15.8701L3.14425 24.4517C-1.04157 28.6054 -1.04157 35.3844 3.14425 39.5381L11.7517 48.1392L16.8022 43.1039L9.23629 35.5608H14.2475C22.1278 35.5608 28.5343 41.948 28.5343 49.8046V33.8954C24.7415 30.5254 19.7303 28.4486 14.2278 28.4486Z" fill="#F39200"/>
<path d="M28.5342 59.2876V75.6278V49.8439V49.8243C28.5342 45.4747 29.8508 41.419 32.1108 38.0295C31.1086 36.5013 29.8902 35.1298 28.5342 33.915V49.8243V59.2876Z" fill="#009DD4"/>
<path d="M28.5342 59.2876V75.6278V49.8439V49.8243C28.5342 45.4747 29.8508 41.419 32.1108 38.0295C31.1086 36.5013 29.8902 35.1298 28.5342 33.915V49.8243V59.2876Z" fill="#006D73"/>
<path d="M61.058 24.4713L52.4309 15.8701L47.3804 20.9054L54.9463 28.4486H49.9548C44.4719 28.4486 39.4608 30.5254 35.668 33.915V49.8046C35.668 41.948 42.0744 35.5608 49.9548 35.5608H54.9463L47.3804 43.1039L52.4309 48.1392L61.058 39.5381C65.2242 35.404 65.2242 28.6249 61.058 24.4713Z" fill="#00B9BA"/>
<path d="M32.0913 38.0295C34.3513 41.419 35.6679 45.4551 35.6679 49.8047V33.915C34.312 35.1298 33.1132 36.5013 32.0913 38.0295Z" fill="#006DBC"/>
<path d="M28.5343 49.8437V75.6276H35.6679V54.2716V49.8045C35.6679 45.4549 34.3512 41.3992 32.0913 38.0293C29.8313 41.4188 28.5146 45.4745 28.5146 49.8241V49.8437H28.5343Z" fill="#0F19A0"/>
</svg>
