<svg
    fill="none"
    height="21"
    viewBox="0 0 21 21"
    width="21"
    aria-hidden="true"
  >
    <path
      d="m21.0002 10.5004c-.01 5.76-4.6601 10.4497-10.4201 10.4897-5.87002.04-10.5398533-4.6996-10.57985331-10.4296-.03999999-5.89005 4.78983331-10.6101064 10.57985331-10.5601064 5.69.03 10.4301 4.6599964 10.4201 10.5000064zm-12.36006-.0103c-.01 0-.02003 0-.03003 0-.01.28-.02004.5701-.04004.8501-.06.61-.11995 1.2201-.19995 1.8301-.05.42-.12997.8403-.21997 1.2603-.11.5-.22011.9997-.36011 1.4897-.14.5-.31996.9902-.45996 1.4902-.09.33-.15986.66-.10986 1 .04.27.16993.4796.42993.5796s.49995.0502.69995-.1298c.12-.11.22006-.2399.31006-.3799.22-.35.34997-.7301.46997-1.1201.16-.54.29996-1.0799.45996-1.6099.15-.5.30998-1 .48001-1.5.04-.13.1299-.2499.2099-.3599.1-.13.2301-.1202.3501-.0102.03.03.0601.0601.0701.1001.1.22.22.4399.29.6699.2.65.3799 1.3102.5699 1.9702.16.55.31 1.1099.56 1.6299.12.25.26.4901.49.6601.37.28.9.1197 1.04-.3203.05-.15.0701-.3099.0501-.4599-.05-.33-.1-.6698-.2-.9898-.24-.8-.5301-1.5804-.6801-2.4004-.1-.55-.2101-1.0896-.2901-1.6396s-.1299-1.1002-.1699-1.6602c-.05-.62-.08-1.2498.01-1.87985.03-.19.09-.39006.18-.56006.12-.24.34-.37017.59-.43017.41-.09.83-.17 1.24-.25.64-.12 1.28-.2301 1.92-.3501.33-.06.6699-.12979.9699-.27979.13-.07.2501-.16001.3401-.27001.18-.21.0601-.67987-.1199-.85987-.23-.23-.51-.24017-.8-.18017-.32.06-.64.1199-.96.1499-.58.06-1.16.10037-1.74.13037-.8.04-1.6101.08986-2.4101.10986-1.25.03-2.51003.00994-3.76003-.06006-.43-.02-.86003-.03982-1.28003-.06982-.45-.03-.90986-.06035-1.35986-.11035-.32-.03-.63995-.0799-.94995-.1499-.48-.11-.81997.05021-.96997.47021-.12.34-.04023.59004.26977.79004.27.17.57012.2398.87012.2998.43.08001.87005.16024 1.30005.24024.4.07.78993.13973 1.17993.21973.29.06.58011.11017.86011.18017.43.11.69001.38983.76001.81983.07.35.09989.7198.13989 1.0898zm-.03003-6.4399c0 1.04.81011 1.8799 1.86009 1.8999 1.05.02 1.9099-.82963 1.9199-1.86963 0-1.06-.8298-1.90015-1.8798-1.91015-1.04004-.01-1.89019.82988-1.90019 1.87988z"
      fill="#c82a87"
    />
  </svg>
