<svg aria-hidden="true" width="54" height="54" viewBox="0 0 54 54" fill="none" xmlns="http://www.w3.org/2000/svg">
<path fill-rule="evenodd" clip-rule="evenodd" d="M48 7V47V52H43H16V52.0014C10.4772 52.0014 6 47.5243 6 42.0014H11C11 44.7629 13.2386 47.0014 16 47.0014V47H43V7L11 7V42H6V7V2L11 2H43H48V7ZM16 11V16L39 16V11L16 11ZM34 20V25H39V20H34ZM34 34V29H39V34H34ZM34 38V43H39V38H34ZM25 25V20H30V25H25ZM25 29V34H30V29H25ZM25 43V38H30V43H25ZM16 20V25H21V20H16ZM16 34V29H21V34H16ZM16 38V43H21V38H16Z" fill="#C82A87"/>
</svg>
