<svg
  width="20"
  height="24"
  fill="currentColor"
  viewBox="0 0 20 24"
  aria-hidden="true"
>
  <path d="M19.7419 0H0C0 4.36364 0 4.36364 0 4.36364V19.5818C0 22.0364 1.97419 24 4.44194 24H19.7419V4.36364C19.7419 4.36364 19.7419 4.36364 19.7419 0ZM17.5484 21.8182H4.44194C3.18065 21.8182 2.19355 20.8364 2.19355 19.5818V4.36364C2.19355 4.14545 2.19355 3.43636 2.19355 2.18182H17.5484C17.5484 3.43636 17.5484 4.14545 17.5484 4.36364V21.8182Z"/>
  <path d="M6.19677 8.67273C6.0871 8.78182 5.97742 8.78182 5.86774 8.67273L4.99032 7.8L4.00323 8.78182L4.88065 9.65455C5.20968 9.98182 5.59355 10.1455 6.03226 10.1455C6.36129 10.1455 6.69032 10.0364 6.96452 9.81818C7.01935 9.76364 7.12903 9.70909 7.18387 9.65455L9.37742 7.63636L8.39032 6.6L6.19677 8.67273Z"/>
  <path d="M6.19677 12.9273C6.0871 13.0364 5.97742 13.0364 5.86774 12.9273L4.99032 12.0545L4.00323 13.0909L4.88065 13.9636C5.20968 14.2909 5.59355 14.4545 6.03226 14.4545C6.36129 14.4545 6.69032 14.3455 6.96452 14.1273C7.01935 14.0727 7.12903 14.0182 7.18387 13.9636L9.37742 11.9455L8.39032 10.9091L6.19677 12.9273Z"/>
  <path d="M6.19677 17.1818C6.0871 17.2909 5.97742 17.2909 5.86774 17.1818L4.99032 16.3636L4.00323 17.3455L4.88065 18.2182C5.20968 18.5455 5.59355 18.7091 6.03226 18.7091C6.41613 18.7091 6.8 18.5455 7.07419 18.3273C7.12903 18.2727 7.12903 18.2727 7.18387 18.2182L9.37742 16.2L8.39032 15.1636L6.19677 17.1818Z"/>
  <path d="M15.3548 8.01818H10.9677V9.43636H15.3548V8.01818Z"/>
  <path d="M15.3548 12.3273H10.9677V13.7455H15.3548V12.3273Z"/>
  <path d="M15.3548 16.5818H10.9677V18H15.3548V16.5818Z"/>
</svg>
