<svg aria-hidden="true" width="54" height="54" viewBox="0 0 54 54" fill="none" xmlns="http://www.w3.org/2000/svg">
<path fill-rule="evenodd" clip-rule="evenodd" d="M24 47C29.4507 47 34.4585 45.1039 38.4 41.9354L47.3138 50.8492L50.8494 47.3137L41.9355 38.3998C45.104 34.4584 47 29.4506 47 24C47 11.2975 36.7025 1 24 1C11.2975 1 1 11.2975 1 24C1 36.7025 11.2975 47 24 47ZM24 42C33.9411 42 42 33.9411 42 24C42 14.0589 33.9411 6 24 6C14.0589 6 6 14.0589 6 24C6 33.9411 14.0589 42 24 42ZM34 17V33V38H29H22C16.4772 38 12 33.5228 12 28V17V12H17H29H34V17ZM17 17L29 17V33H22C19.2386 33 17 30.7614 17 28V17ZM26.9978 21.5H24C23.4486 21.5 23.0014 21.9463 23 22.4974H23.0039V24H26.9978V26.5H23.0039V28.5H26.9978V31H23.0039H20.5039H19V28.5H20.5039V26.5H19V24H20.5039V22.5H20.5C20.5 20.5677 22.0658 19.0012 23.9978 19H24H26.9978V21.5Z" fill="#C82A87"/>
</svg>
