<svg aria-hidden="true" width="54" height="54" viewBox="0 0 54 54" fill="none" xmlns="http://www.w3.org/2000/svg">
<path fill-rule="evenodd" clip-rule="evenodd" d="M37.0506 42C37.0173 42.1633 37 42.3302 37 42.5C37 44.433 39.2386 46 42 46C44.7614 46 47 44.433 47 42.5C47 42.3302 46.9827 42.1633 46.9494 42C46.8952 41.735 46.7986 41.4795 46.6646 41.2371C46.6493 41.2094 46.6335 41.1818 46.6172 41.1544C45.2359 41.6946 43.6655 42 42 42C40.3345 42 38.7641 41.6946 37.3828 41.1544C37.224 41.4212 37.111 41.7047 37.0506 42ZM46.962 34.9335C46.9871 34.7915 47 34.6468 47 34.5C47 34.0232 46.8638 33.5687 46.6172 33.1544C45.2359 33.6946 43.6655 34 42 34C40.3345 34 38.7641 33.6946 37.3828 33.1544C37.1362 33.5687 37 34.0232 37 34.5C37 35.4793 37.5746 36.3647 38.5007 37C39.4026 37.6186 40.6376 38 42 38C44.5517 38 46.657 36.662 46.962 34.9335ZM3 42L32.0219 42C32.0074 42.1653 32 42.332 32 42.5C32 46.6421 36.4772 50 42 50C47.5228 50 52 46.6421 52 42.5C52 41.0294 51.4357 39.6577 50.4606 38.5C51.4357 37.3423 52 35.9706 52 34.5C52 33.0294 51.4357 31.6577 50.4606 30.5C51.4357 29.3423 52 27.9706 52 26.5C52 22.3579 47.5228 19 42 19C40.6474 19 39.3575 19.2014 38.1808 19.5664L27 0L3 42ZM40.2663 23.2161C38.3594 23.7096 37 24.9936 37 26.5C37 28.433 39.2386 30 42 30C42.7033 30 43.3728 29.8983 43.9799 29.7149C45.7565 29.178 47 27.9407 47 26.5C47 24.567 44.7614 23 42 23C41.3905 23 40.8064 23.0763 40.2663 23.2161ZM32.569 37C32.2005 36.218 32 35.3766 32 34.5C32 33.0294 32.5643 31.6577 33.5394 30.5C32.5643 29.3423 32 27.9706 32 26.5C32 24.8643 32.6982 23.3509 33.8832 22.1182L27 10.079L11.6165 37L32.569 37ZM28.25 31H25.75V33.5H28.25V31ZM25.75 19H28.25V29H25.75V19Z" fill="#C82A87"/>
</svg>
