<svg aria-hidden="true" width="54" height="54" viewBox="0 0 54 54" fill="none" xmlns="http://www.w3.org/2000/svg">
<path fill-rule="evenodd" clip-rule="evenodd" d="M31 19.3137C29.322 19.7436 27.7339 20.6153 26.4203 21.9289C26.3964 21.9528 26.3732 21.9766 26.3506 22.0005L19.0035 29.3477H19.0023V29.3488L18.9998 29.3514L19.0023 29.354V35H16C13.2386 35 11 32.7614 11 30V7L31 7V19.3137ZM36 19.3181V7V2H31H11H6V7V30C6 35.5228 10.4772 40 16 40H19.0023V47H19V52H19.0023H24.0023H43.0023H48H48.0023V29.3477H47.9792L40.6389 22.0074C40.6141 21.9813 40.5886 21.9551 40.5624 21.9289C39.2533 20.6198 37.6716 19.7496 36 19.3181ZM28 10V12.5L14 12.5V10L28 10ZM28 18V15.5L14 15.5V18L28 18ZM22 21V23.5H14V21H22ZM30.0287 25.3935L30.0284 25.3933C31.9744 23.5234 35.061 23.5357 36.9921 25.43L36.9912 25.4308L43.0023 31.4419V47H38.5024V35H38H36.0024H31H29H28.5V47H24.0023V31.4199L30.0287 25.3935ZM31 47V37.5H36.0024V47H31Z" fill="#C82A87"/>
</svg>
