 <svg
              width="16"
              height="16"
              viewBox="0 0 16 16"
              fill="none"
              xmlns="http://www.w3.org/2000/svg"
							aria-hidden="true"
            >
              <path
                fillRule="evenodd"
                clipRule="evenodd"
                d="M14.935 14.5415H9.60433V12.9373C9.60451 12.7236 9.68965 12.5185 9.84072 12.3675C9.99196 12.2162 10.1969 12.1313 10.4107 12.1311H10.4336C10.9355 12.5892 11.5907 12.8432 12.2702 12.8432C12.9497 12.8432 13.6048 12.5892 14.1067 12.1311H14.1293C14.3431 12.1313 14.548 12.2164 14.6991 12.3675C14.8503 12.5187 14.9353 12.7236 14.9355 12.9373V14.5415H14.935ZM14.1289 11.6686H14.0134C13.953 11.6686 13.8947 11.6924 13.8515 11.7347C13.4289 12.149 12.8605 12.3812 12.2686 12.3812C11.6766 12.3812 11.1082 12.149 10.6855 11.7347C10.6424 11.6922 10.5842 11.6686 10.5238 11.6686H10.4093C10.073 11.6689 9.75051 11.8028 9.51266 12.0406C9.27481 12.2785 9.14096 12.6009 9.14059 12.9373V14.7727C9.14059 14.8341 9.16495 14.8929 9.20834 14.9361C9.25174 14.9795 9.31052 15.0038 9.37186 15.0036H15.1665C15.2279 15.0038 15.2867 14.9795 15.3299 14.9361C15.3733 14.8929 15.3976 14.8341 15.3976 14.7727V12.9373C15.3973 12.6009 15.2634 12.2785 15.0256 12.0406C14.7879 11.8028 14.4654 11.6691 14.1291 11.6686H14.1289ZM12.2697 11.623C11.8707 11.623 11.4882 11.4646 11.206 11.1824C10.9241 10.9004 10.7655 10.5177 10.7657 10.1189C10.7657 9.71993 10.9241 9.33742 11.2062 9.05528C11.4882 8.7733 11.8709 8.61473 12.2699 8.61491C12.6687 8.61491 13.0514 8.7733 13.3334 9.05546C13.6154 9.33763 13.7739 9.72015 13.7737 10.1191C13.7734 10.5179 13.6148 10.9 13.3328 11.182C13.0508 11.464 12.6685 11.6226 12.2697 11.623L12.2697 11.623ZM12.2697 8.15258C12.7912 8.15258 13.2914 8.35986 13.6602 8.72863C14.029 9.0974 14.236 9.59764 14.236 10.1191C14.236 10.6406 14.029 11.1409 13.6602 11.5096C13.2914 11.8784 12.7912 12.0855 12.2697 12.0855C11.7482 12.0855 11.248 11.8784 10.8792 11.5096C10.5104 11.1409 10.3033 10.6406 10.3033 10.1191C10.3039 9.59783 10.5112 9.09796 10.8799 8.72938C11.2485 8.3606 11.7484 8.15333 12.2697 8.15258ZM3.54203 11.8185C3.4622 11.8187 3.39024 11.7707 3.35966 11.6971C3.32908 11.6233 3.34574 11.5386 3.40214 11.4822C3.45854 11.4258 3.5435 11.4087 3.6171 11.4393C3.69089 11.4699 3.73887 11.5419 3.73869 11.6217C3.7385 11.7303 3.65061 11.8184 3.54203 11.8185L3.54203 11.8185ZM3.54203 10.9621C3.27525 10.9619 3.03466 11.1225 2.93228 11.369C2.83011 11.6153 2.8865 11.8991 3.07492 12.0877C3.26352 12.2765 3.54733 12.333 3.7938 12.2309C4.04026 12.1289 4.20102 11.8885 4.20102 11.6217C4.20047 11.2578 3.90586 10.9628 3.54201 10.9621L3.54203 10.9621ZM5.12078 11.8185C5.04095 11.8185 4.96899 11.7706 4.93859 11.6969C4.90801 11.6232 4.92504 11.5384 4.98144 11.482C5.03783 11.4256 5.12261 11.4089 5.19622 11.4393C5.26983 11.4699 5.3178 11.5419 5.3178 11.6217C5.31762 11.7305 5.22955 11.8185 5.12078 11.8185L5.12078 11.8185ZM5.12078 10.9621C4.854 10.9621 4.61359 11.1229 4.51141 11.3692C4.40942 11.6156 4.46581 11.8993 4.65441 12.0879C4.84301 12.2765 5.12663 12.3329 5.3731 12.2309C5.61956 12.1289 5.78014 11.8883 5.78014 11.6217C5.77996 11.2575 5.48479 10.9625 5.1208 10.9621L5.12078 10.9621ZM6.69953 11.8185C6.61988 11.8185 6.54792 11.7706 6.51752 11.6969C6.48695 11.6232 6.50379 11.5384 6.56019 11.482C6.61677 11.4256 6.70154 11.4089 6.77515 11.4393C6.84876 11.4699 6.89674 11.5419 6.89674 11.6217C6.89655 11.7305 6.8083 11.8185 6.69953 11.8185L6.69953 11.8185ZM6.69953 10.9621C6.43293 10.9621 6.19234 11.1229 6.09034 11.3692C5.98835 11.6156 6.04475 11.8993 6.23335 12.0879C6.42195 12.2765 6.70557 12.3329 6.95204 12.2309C7.19831 12.1289 7.35908 11.8883 7.35908 11.6217C7.35871 11.2577 7.06355 10.9627 6.69955 10.9621L6.69953 10.9621ZM7.8648 12.8245V10.4185C7.86443 10.0689 7.58116 9.78585 7.23161 9.78547H3.00958C2.66021 9.78584 2.37695 10.0691 2.37658 10.4185V12.8237C2.37676 13.1735 2.66003 13.4569 3.00958 13.4573H3.68083C3.77073 13.4573 3.8524 13.5095 3.8903 13.591C4.05968 13.9539 4.37354 14.1765 4.84482 14.2646H4.845C4.74722 14.1 4.67856 13.9196 4.64194 13.7318C4.62912 13.6642 4.64707 13.5944 4.69083 13.5413C4.73459 13.4882 4.79978 13.4575 4.86844 13.4573H7.2316C7.58096 13.4569 7.86422 13.1738 7.86479 12.8243L7.8648 12.8245ZM7.23161 9.32239H3.00958C2.71917 9.32258 2.44047 9.4383 2.2352 9.64375C2.02976 9.84937 1.9144 10.1279 1.91422 10.4184V12.8237C1.91458 13.1141 2.03012 13.3924 2.23557 13.5977C2.44083 13.803 2.71932 13.9183 3.00957 13.9187H3.54057C3.86485 14.4794 4.47038 14.7655 5.34268 14.7696H5.34396L5.34414 14.7694C5.43588 14.7688 5.51883 14.7139 5.55508 14.6295C5.59152 14.5451 5.57449 14.4471 5.51168 14.3799C5.37838 14.2451 5.26815 14.0893 5.18539 13.9187H7.23158C7.52198 13.9183 7.8005 13.8029 8.00595 13.5975C8.21121 13.3922 8.32676 13.1138 8.32712 12.8233V10.4184C8.32676 10.128 8.21122 9.84947 8.00577 9.6442C7.80051 9.43894 7.52202 9.3234 7.23158 9.32303L7.23161 9.32239ZM6.39466 7.38552H1.06356V5.78131C1.06393 5.56745 1.14889 5.36255 1.30014 5.21131C1.45138 5.06025 1.65628 4.97529 1.86995 4.97492H1.89247C2.39436 5.43323 3.04935 5.68719 3.72903 5.68719C4.40853 5.68719 5.0637 5.43322 5.56559 4.97492H5.58812C5.80198 4.97529 6.00688 5.06025 6.15793 5.21131C6.30918 5.36256 6.39414 5.56746 6.3945 5.78131L6.39466 7.38552ZM6.857 7.6166V5.78135C6.85663 5.44498 6.72278 5.12252 6.48493 4.88468C6.24707 4.64682 5.92463 4.51297 5.58826 4.51261H5.47381H5.474C5.41339 4.51242 5.35535 4.53623 5.31213 4.57852C4.88953 4.99307 4.32115 5.22526 3.72902 5.22526C3.13704 5.22526 2.56868 4.99308 2.14606 4.57852C2.10321 4.53659 2.04572 4.51297 1.98565 4.51261H1.87012C1.53393 4.51315 1.21148 4.64682 0.973633 4.88468C0.73578 5.12253 0.601928 5.44497 0.601562 5.78135V7.61641C0.601562 7.74404 0.704833 7.84767 0.832642 7.84786H6.62592C6.75373 7.84767 6.85719 7.74422 6.85719 7.61641L6.857 7.6166ZM3.72917 1.4591C4.12816 1.45891 4.51086 1.61748 4.79281 1.89946C5.07497 2.18163 5.23354 2.56415 5.23354 2.96311C5.23354 3.36206 5.07497 3.74461 4.79299 4.02675C4.51083 4.30873 4.12831 4.4673 3.72935 4.4673C3.33037 4.4673 2.94785 4.30873 2.66571 4.02656C2.38373 3.74458 2.22534 3.36188 2.22534 2.96292C2.22571 2.5643 2.38428 2.18199 2.66626 1.89999C2.94824 1.61799 3.33057 1.45944 3.7292 1.45907L3.72917 1.4591ZM3.72917 4.92949C3.20769 4.92949 2.70744 4.72221 2.33867 4.35344C1.9699 3.98467 1.76281 3.48461 1.76281 2.96294C1.76281 2.44146 1.9699 1.94121 2.33867 1.57244C2.70744 1.20368 3.20769 0.996582 3.72917 0.996582C4.25084 0.996582 4.7509 1.20368 5.11967 1.57244C5.48844 1.94121 5.69572 2.44146 5.69572 2.96294C5.69517 3.48443 5.48789 3.9843 5.11911 4.35288C4.75051 4.72165 4.25065 4.92911 3.72917 4.92968V4.92949ZM12.4573 4.26775C12.5369 4.26775 12.6087 4.31573 12.6393 4.38915C12.6699 4.46276 12.653 4.54754 12.5966 4.60393C12.5404 4.66033 12.4556 4.67717 12.382 4.64678C12.3084 4.6162 12.2605 4.54442 12.2605 4.46477C12.2606 4.35601 12.3485 4.26793 12.4573 4.26775L12.4573 4.26775ZM12.4573 5.12397C12.7239 5.12397 12.9643 4.96339 13.0663 4.71711C13.1683 4.47065 13.1119 4.187 12.9235 3.99861C12.7349 3.81001 12.4513 3.75361 12.205 3.85561C11.9585 3.9576 11.7979 4.19801 11.7979 4.46479C11.7983 4.82862 12.0933 5.12362 12.4573 5.12395L12.4573 5.12397ZM10.8793 4.66163C10.7996 4.66181 10.7277 4.61384 10.6971 4.54042C10.6665 4.46681 10.6832 4.38203 10.7396 4.32564C10.7958 4.26924 10.8806 4.25221 10.9542 4.28279C11.028 4.31318 11.076 4.38496 11.076 4.46479C11.0758 4.57338 10.9879 4.66127 10.8793 4.66163L10.8793 4.66163ZM11.5385 4.46461V4.46479C11.5385 4.19801 11.3779 3.95742 11.1314 3.85542C10.8849 3.75325 10.6012 3.80964 10.4125 3.99824C10.2239 4.18702 10.1675 4.47065 10.2697 4.71712C10.3719 4.96358 10.6125 5.12416 10.8793 5.12398C11.2431 5.12361 11.5381 4.82863 11.5384 4.46482L11.5385 4.46461ZM9.29923 4.66163C9.21958 4.66163 9.1478 4.61366 9.11741 4.54005C9.08701 4.46644 9.10386 4.38166 9.16025 4.32545C9.21647 4.26905 9.30125 4.25221 9.37485 4.28278C9.44846 4.31336 9.49644 4.38514 9.49644 4.46479C9.49625 4.57355 9.408 4.66163 9.29923 4.66163L9.29923 4.66163ZM9.29923 3.80541C9.03263 3.80559 8.79223 3.96618 8.69042 4.21264C8.58843 4.4591 8.64483 4.74256 8.83343 4.93095C9.02202 5.11955 9.30564 5.17595 9.55193 5.07377C9.7982 4.97178 9.95879 4.73137 9.95879 4.46477C9.95842 4.10058 9.66325 3.80562 9.29926 3.80543L9.29923 3.80541ZM8.76729 6.30076H11.1305C11.1993 6.30076 11.2645 6.33152 11.3082 6.38462C11.3522 6.43754 11.3701 6.5073 11.3575 6.57505C11.3209 6.76291 11.2524 6.94328 11.1546 7.10788C11.6254 7.0198 11.9392 6.79696 12.1091 6.43405V6.43423C12.1472 6.35275 12.2289 6.30075 12.3188 6.30075H12.99H12.9899C13.3394 6.30038 13.6225 6.01712 13.6229 5.66756V3.26156C13.6225 2.91219 13.3394 2.62893 12.9899 2.62856H8.76727C8.41791 2.62893 8.13465 2.91219 8.13408 3.26156V5.66756C8.13463 6.01711 8.4179 6.30037 8.76727 6.30075L8.76729 6.30076ZM10.4874 7.22363V7.22345C10.4237 7.29046 10.4061 7.38897 10.4425 7.47394C10.4789 7.5589 10.5624 7.61383 10.6549 7.61383H10.6564C11.529 7.6098 12.1342 7.32398 12.4585 6.76314H12.9897C13.2801 6.76296 13.5584 6.64742 13.7639 6.44216C13.9693 6.23671 14.0847 5.95822 14.085 5.66778V3.2616C14.0847 2.97119 13.9691 2.69286 13.7639 2.48741C13.5584 2.28215 13.2801 2.1666 12.9897 2.16642H8.76727C8.47686 2.16661 8.19853 2.28215 7.99308 2.48741C7.78764 2.69285 7.67209 2.97116 7.67173 3.2616V5.6676C7.67209 5.958 7.78764 6.23652 7.99308 6.44178C8.19852 6.64723 8.47683 6.76277 8.76727 6.76313H10.8136C10.7305 6.93324 10.6203 7.0887 10.4874 7.22328L10.4874 7.22363Z"
                fill="#122A85"
              />
            </svg>