<svg aria-hidden="true" width="13" height="26" viewBox="0 0 13 26">
<path d="M12.3401 1.016C11.6501 0.976004 10.97 0.935907 10.28 0.915907C9.83003 0.895907 9.37017 0.885907 8.92017 0.915907C7.50017 1.00591 6.21997 1.45577 5.21997 2.52577C4.57997 3.19577 4.19998 4.00565 3.97998 4.90565C3.83998 5.49565 3.78003 6.10571 3.78003 6.71571C3.78003 7.72571 3.78003 8.73598 3.78003 9.74599C3.78003 9.79599 3.78003 9.84591 3.78003 9.91591C3.71003 9.91591 3.66011 9.91591 3.61011 9.91591C2.46011 9.91591 1.31017 9.91591 0.170166 9.91591C0.000166014 9.91591 0 9.91558 0 10.0756C0 11.4456 0 12.8057 0 14.1757C0 14.2957 0.0401563 14.3358 0.160156 14.3358C1.31016 14.3358 2.46012 14.3358 3.62012 14.3358C3.79012 14.3358 3.79004 14.3358 3.79004 14.5058C3.79004 17.9258 3.79004 21.9659 3.79004 25.4559C3.79004 25.5059 3.83013 25.5458 3.88013 25.5458H8.25C8.31 25.5458 8.3501 25.4957 8.3501 25.4457V14.3558C8.4101 14.3558 8.47003 14.3456 8.53003 14.3456C9.67003 14.3456 10.81 14.3456 11.95 14.3456C12.07 14.3456 12.1201 14.3259 12.1401 14.1859C12.2101 13.5459 12.3001 12.9158 12.3801 12.2758C12.4701 11.5958 12.5601 10.926 12.6501 10.246C12.6601 10.146 12.6702 10.0459 12.6802 9.93593H8.3501C8.3501 9.87593 8.34009 9.83579 8.34009 9.79579C8.34009 8.85579 8.3301 7.92573 8.3501 6.98573C8.3501 6.72573 8.38995 6.45569 8.44995 6.19569C8.60995 5.55569 9.05994 5.22585 9.68994 5.10585C9.94994 5.05585 10.21 5.03577 10.47 5.02577C11.2 5.01577 11.9302 5.02577 12.6602 5.02577C12.7102 5.02577 12.7601 5.02577 12.8201 5.02577V1.08583C12.6501 1.05583 12.5001 1.026 12.3401 1.016Z" />
</svg>
