              <svg
                width="46"
                height="41"
                viewBox="0 0 46 41"
                fill="#c82a87"
                xmlns="http://www.w3.org/2000/svg"
								aria-hidden="true"
              >
                <path
                  d="M45.5 14.9616C45.5 12.4818 44.5469 10.1505 42.8158 8.39715L37.2106 2.71911C35.4874 0.974428 33.2032 0.0151241 30.7744 0.0151241C30.752 0.0151241 30.7291 0.0156645 30.7067 0.0156645C28.246 0.0334894 25.9105 1.03763 24.1319 2.84118L23.0002 3.98684L21.749 2.71965C20.0179 0.965787 17.716 0 15.2676 0C12.8191 0 10.5173 0.965787 8.78609 2.71965L3.18034 8.39715C-0.393448 12.0167 -0.393448 17.9065 3.18034 21.5271L6.54774 24.9376C6.57067 26.1448 7.08426 27.2991 8.00264 28.1671C8.76956 28.8926 9.75087 29.349 10.7365 29.4667C10.9023 30.5162 11.3796 31.6803 12.1316 32.3798C12.8052 33.0533 13.6964 33.4736 14.6452 33.5875C14.8142 34.5933 15.3188 35.6185 16.0195 36.2705C16.7193 36.9192 17.8184 37.5501 18.9517 37.7472C19.2952 38.9647 19.9731 40.2141 21.5944 40.7634C21.8488 40.8493 22.3895 41 23.0615 41C23.8748 41 24.8812 40.7791 25.8007 39.9532C25.8183 39.9375 25.8353 39.9208 25.8524 39.904C25.9303 39.8252 26.07 39.6912 26.2535 39.5184C27.8369 38.0162 29.0683 36.7344 29.7233 35.659C30.8432 35.9788 32.1899 35.8929 33.0928 35.1821C34.1776 34.3961 34.6336 33.2715 34.664 32.1702C35.7135 32.1281 36.7732 31.6776 37.4218 31.0299C38.1065 30.3461 38.5556 29.2512 38.5455 28.1731C39.7236 28.0958 40.7828 27.6297 41.5379 26.8216C42.8414 25.4275 42.5214 23.5197 42.1491 22.77C42.1219 22.7143 42.0915 22.6614 42.0553 22.6106C42.0158 22.5545 41.9715 22.5031 41.923 22.4561L41.9091 22.4416L42.8137 21.526C44.5464 19.7727 45.5 17.4414 45.5 14.9616ZM8.68263 24.9786L13.3359 20.4101C13.3492 20.3971 13.3625 20.3831 13.3753 20.3696C13.5033 20.2297 13.8948 20.0039 14.3513 20.0131C14.7929 20.0168 15.1988 20.2243 15.5577 20.6294C16.3486 21.5211 16.0691 22.4621 15.9337 22.7873L11.282 27.3375C10.6586 27.3488 9.97114 27.0728 9.45861 26.5872C9.17008 26.3155 8.72316 25.7689 8.68263 24.9786ZM12.8116 28.8439L17.3896 24.3672C17.8136 24.2273 18.9795 23.9351 19.6755 24.6324C20.3624 25.3195 20.2856 26.0784 20.2099 26.4036L15.2185 31.4539C14.7092 31.4599 14.0905 31.3016 13.6036 30.8144C13.1721 30.4142 12.8548 29.4937 12.8116 28.8439ZM16.723 32.9858L21.7906 27.8587C22.0594 27.7393 22.8183 27.5519 23.7831 28.5928C24.4183 29.2782 24.2524 30.2143 24.1522 30.5854L19.3763 35.6223C18.7512 35.5294 17.9806 35.1599 17.4616 34.6776C17.0281 34.2751 16.7555 33.5378 16.723 32.9858ZM24.7948 37.9422C24.606 38.121 24.4572 38.2631 24.3644 38.356C23.5698 39.0506 22.6381 38.8394 22.2711 38.7157C21.6978 38.5218 21.2706 38.1577 20.9768 37.0542L25.7452 32.0243C26.2961 31.7208 27.1718 32.2026 27.4833 32.5877C27.8689 33.0663 28.0401 33.8058 28.0945 34.1822C27.9777 34.5528 27.3628 35.5078 24.7948 37.9422ZM39.9902 25.3368C39.2836 26.0924 38.2479 26.0714 37.6479 25.9785L29.2779 17.4263C28.863 17.0028 28.1884 17.0001 27.7686 17.4193C27.351 17.839 27.3478 18.5233 27.7622 18.9468L36.2762 27.6464C36.554 28.1077 36.3845 29.033 35.9253 29.4916C35.497 29.9199 34.416 30.1992 33.9381 29.8827C33.9376 29.8821 33.937 29.8821 33.9365 29.8816L25.3244 20.9421C24.9122 20.5149 24.237 20.5073 23.8162 20.9237C23.3943 21.3402 23.3858 22.0246 23.7975 22.4518L32.4453 31.4275C32.6293 32.073 32.5669 32.9086 31.8192 33.4509C31.4848 33.7128 30.7051 33.7253 30.1456 33.5249C30.0235 32.9151 29.7489 31.9822 29.1345 31.2195C28.5766 30.5298 27.5148 29.8481 26.3745 29.7617C26.3585 28.9406 26.1255 27.964 25.3372 27.1139C24.3207 26.0173 23.2631 25.6409 22.3735 25.6117C22.2999 24.8058 21.9768 23.9 21.1746 23.0968C20.2701 22.1899 19.1507 21.9932 18.2259 22.0365C18.2451 21.1906 18.0147 20.1681 17.1443 19.1861C16.1774 18.095 15.1017 17.8589 14.3689 17.8525C14.3588 17.8525 14.3492 17.8519 14.3385 17.8519C13.3828 17.8519 12.4282 18.2424 11.833 18.876L7.64212 22.9909L4.68858 19.999C1.94677 17.2216 1.94677 12.7021 4.68858 9.92523L10.2938 4.24719C11.6223 2.90168 13.3887 2.1606 15.267 2.1606C17.1454 2.1606 18.9118 2.90168 20.2403 4.24719L21.4914 5.51438C21.4914 5.51438 14.9326 12.0972 14.331 12.7896C13.9583 13.2196 13.786 13.7711 13.8457 14.3426C13.9327 15.1739 14.4926 15.9997 15.4644 16.73C18.0531 18.6773 21.5773 18.4158 24.0359 16.0937C25.0236 15.1614 27.3014 12.9042 28.4982 11.7147L40.2692 23.8351C40.3396 24.1025 40.4644 24.8301 39.9902 25.3368ZM29.2721 9.42938C29.0742 9.2252 28.8033 9.10907 28.5201 9.10637C28.2161 9.09449 27.9649 9.21602 27.7638 9.41696C27.7254 9.45531 23.9026 13.2666 22.5821 14.5127C20.8621 16.1375 18.5123 16.3314 16.7369 14.9956C16.2153 14.6035 16.027 14.295 15.9801 14.1632C16.315 13.7814 16.9006 13.2207 16.9347 13.1856L25.6401 4.36872C27.0204 2.96866 28.8251 2.1903 30.7216 2.17626C32.6005 2.18058 34.3685 2.8979 35.7018 4.24719L41.3076 9.9247C42.6361 11.2702 43.3672 13.0592 43.3672 14.9616C43.3672 16.864 42.6361 18.653 41.3076 19.9985L40.4142 20.9021L29.2721 9.42938Z"
                  fill="#C82A87"
                />
              </svg>