<svg aria-hidden="true" width="54" height="54" viewBox="0 0 54 54" fill="none" xmlns="http://www.w3.org/2000/svg">
<path fill-rule="evenodd" clip-rule="evenodd" d="M19.9287 2.92893C23.834 -0.976311 30.1656 -0.976311 34.0709 2.92893C34.097 2.95509 34.1225 2.98125 34.1474 3.00741L47.9998 16.8599L47.8597 17H48V45.0014V50V50.0014H35H30V45.0014V32H25V45.0014V50.0014H20H16C10.4771 50.0014 6 45.5243 6 40.0014H11C11 42.7629 13.2386 45.0014 16 45.0014H20V29.0014L20 27H35V29.0014V32V45.0014H43V18.9311L30.4997 6.4308L30.5005 6.43C28.5689 4.53506 25.4809 4.52341 23.535 6.39504L23.5353 6.39534L11 18.9307V40H6V17H6.13989L5.99976 16.8599L19.8591 3.00053C19.8817 2.97662 19.9049 2.95275 19.9287 2.92893Z" fill="#C82A87"/>
</svg>
