<svg aria-hidden="true" width="54" height="54" viewBox="0 0 54 54" fill="none" xmlns="http://www.w3.org/2000/svg">
<path fill-rule="evenodd" clip-rule="evenodd" d="M30.6489 6.43977C28.2061 4.60664 27 3 27 3C27 3 25.7945 4.60698 23.3517 6.44036C20.1078 8.87504 14.682 11.709 7 11.709C7 13.208 7 14.896 7.04109 16.709C7.32023 29.0233 9.49532 47.1038 26.4444 50.8995C26.6155 50.9378 26.9969 51 26.9969 51C26.9969 51 27.3503 50.9404 27.5333 50.8995C44.5018 47.1038 46.6794 29.0233 46.9589 16.709C47 14.896 47 13.208 47 11.709C39.3199 11.709 33.8935 8.87459 30.6489 6.43977ZM27.0006 9.93927C26.3473 10.4583 25.6121 10.9972 24.7939 11.5343C21.7098 13.5589 17.4538 15.5503 12.0361 16.3463C12.1425 21.454 12.5609 27.2953 14.2038 32.563C16.2496 39.1225 19.9388 44.1072 26.9893 45.8898C34.0529 44.1064 37.7463 39.1193 39.7939 32.5614C41.4385 27.2944 41.8574 21.4536 41.9639 16.3462C36.5476 15.55 32.292 13.5587 29.2081 11.5345C28.3896 10.9974 27.6541 10.4584 27.0006 9.93927ZM27 20.931C26.4245 21.2581 25.6889 21.6493 24.8242 22.052C22.6773 23.0519 19.6408 24.1673 16.2351 24.4889L15.7649 19.5111C18.4092 19.2613 20.8727 18.3767 22.7133 17.5195C23.6241 17.0952 24.3591 16.6887 24.8594 16.3928C25.109 16.2452 25.2987 16.126 25.421 16.0472C25.4821 16.0078 25.5262 15.9785 25.5525 15.961L25.5783 15.9436L25.5796 15.9427L25.5809 15.9418L27 14.9589L28.4191 15.9418L28.4191 15.9418L28.4204 15.9427L28.4217 15.9436L28.4475 15.961C28.4738 15.9785 28.5179 16.0078 28.579 16.0472C28.7013 16.126 28.891 16.2452 29.1406 16.3928C29.6409 16.6887 30.3759 17.0952 31.2867 17.5195C33.1273 18.3767 35.5908 19.2613 38.2351 19.5111L37.7649 24.4889C34.3592 24.1673 31.3227 23.0519 29.1758 22.052C28.3111 21.6493 27.5755 21.2581 27 20.931ZM28 28.5418H30.9978V26.0418H28H27.9978C26.0658 26.043 24.5 27.6095 24.5 29.5418H24.5039V31.0418H23V33.5418H24.5039V35.5418H23V38.0418H24.5039H27.0039H30.9978V35.5418H27.0039V33.5418H30.9978V31.0418H27.0039V29.5392H27C27.0014 28.9881 27.4486 28.5418 28 28.5418Z" fill="#C82A87"/>
</svg>
