<svg aria-hidden="true" width="29" height="20" viewBox="0 0 29 20" fill="none" xmlns="http://www.w3.org/2000/svg">
<path d="M24.9923 0H3.95202C1.78119 0 0 1.67102 0 3.70757V16.2924C0 18.329 1.78119 20 3.95202 20H25.048C27.2188 20 29 18.329 29 16.2924V3.70757C29 1.67102 27.2188 0 24.9923 0ZM3.95202 2.19321H25.048C25.9386 2.19321 26.6622 2.87206 26.6622 3.70757V4.22977L15.4741 11.5405C14.9731 11.8538 14.0269 11.8538 13.5259 11.5405L2.33781 4.22977V3.70757C2.33781 2.87206 3.06142 2.19321 3.95202 2.19321ZM24.9923 17.859H3.95202C3.06142 17.859 2.33781 17.1802 2.33781 16.3446V6.89295L12.19 13.3159C12.858 13.7337 13.6929 13.9426 14.5278 13.9426C15.3628 13.9426 16.1977 13.7337 16.8656 13.3159L26.6622 6.89295V16.2924C26.6622 17.1802 25.9386 17.859 24.9923 17.859Z" fill="#C82A87"/>
</svg>
