 <svg
              width="16"
              height="10"
              viewBox="0 0 16 10"
              fill="none"
              xmlns="http://www.w3.org/2000/svg"
							aria-hidden="true"
            >
              <path
                fillRule="evenodd"
                clipRule="evenodd"
                d="M14.9356 8.64557C14.9169 8.77557 14.7997 8.86823 14.6688 8.85651H1.33097C1.20005 8.86823 1.08287 8.77557 1.06419 8.64557V8.43463H14.9354L14.9356 8.64557ZM1.86823 7.89758H14.1317V7.97229H1.86823V7.89758ZM1.92371 1.14337H6.9084V1.49988C6.9084 1.6275 7.01185 1.73095 7.13948 1.73095H8.86012C8.98774 1.73095 9.0912 1.6275 9.09138 1.49988V1.14337H14.0761C14.1065 1.14373 14.1312 1.16827 14.1315 1.19885V7.43557H1.86811V1.19885C1.86848 1.16827 1.89301 1.14373 1.92359 1.14337H1.92371ZM7.37058 1.14337V1.26825H8.6289V1.14337H7.37058ZM15.1664 7.97212H14.5936V1.19868C14.5934 0.912667 14.3616 0.681039 14.0758 0.680664H1.92343C1.63742 0.68103 1.4056 0.912658 1.40522 1.19868V7.97212H0.832459H0.832642C0.705015 7.97212 0.601562 8.07557 0.601562 8.2032V8.6454C0.609436 8.83125 0.69055 9.0063 0.827148 9.13247C0.963747 9.25863 1.14483 9.32565 1.33068 9.31888H14.6685C14.8543 9.32565 15.0354 9.25863 15.172 9.13247C15.3086 9.00631 15.3897 8.83126 15.3976 8.6454V8.2032C15.3976 8.14186 15.3733 8.08308 15.3299 8.03968C15.2866 7.99647 15.2279 7.97212 15.1665 7.97212H15.1664Z"
                fill="#122A85"
              />
            </svg>