<svg aria-hidden="true" width="54" height="54" viewBox="0 0 54 54" fill="none" xmlns="http://www.w3.org/2000/svg">
<path fill-rule="evenodd" clip-rule="evenodd" d="M43 18.3028V7V2H38H11H6V7V42C6 47.5228 10.4772 52 16 52H38H43V47V28.313L44.4695 26.8434L44.4753 26.8492L48.0109 23.3137L43 18.3028ZM38 13.3028V7L11 7V42C11 44.7614 13.2386 47 16 47H38V33.313L27.3137 43.9992L16 43.9993L16 32.6857L19.3389 29.3468L19.3354 29.3434L22.1639 26.515L22.1673 26.5184L34.385 14.3008L34.3907 14.3065L36.6972 12L38 13.3028ZM40.9335 23.3074L36.6929 19.0669L25.7044 30.0554L29.9454 34.2965L38 26.2419V26.2409L40.9335 23.3074ZM19 13.5H21.9978V11H19H18.9978C17.0658 11.0012 15.5 12.5677 15.5 14.5H15.5039V16H14V18.5H15.5039V20.5H14V23H15.5039H18.0039H21.9978V20.5H18.0039V18.5H21.9978V16H18.0039V14.4974H18C18.0014 13.9463 18.4486 13.5 19 13.5ZM20.9514 34.8084L22.8759 32.8839L27.117 37.1249L25.1925 39.0495L20.95 39.0495L20.9514 34.8084Z" fill="#C82A87"/>
</svg>
