<svg aria-hidden="true" width="54" height="54" viewBox="0 0 54 54" fill="none" xmlns="http://www.w3.org/2000/svg">
<g clip-path="url(#clip0_2130_18577)">
<path fill-rule="evenodd" clip-rule="evenodd" d="M54 27C54 41.9117 41.9117 54 27 54C12.0883 54 0 41.9117 0 27C0 12.0883 12.0883 0 27 0C41.9117 0 54 12.0883 54 27ZM49 27C49 39.1503 39.1503 49 27 49C21.8933 49 17.193 47.2601 13.4596 44.3407L17.886 39.9143C19.5763 41.222 21.6971 42.0001 23.9995 42.0001V42H39.9976V41.6H40V18V17.6207L44.2616 13.3591C47.2286 17.1085 49 21.8474 49 27ZM40.7358 9.81384C36.9716 6.80144 32.1962 5 27 5C14.8497 5 5 14.8497 5 27C5 32.2421 6.83339 37.0559 9.89394 40.8353L14.8007 35.9285C14.285 34.7226 13.9996 33.3947 13.9996 32.0001H13.9998V13H14H18.9998H35H37.5496L40.7358 9.81384ZM18.9998 18H35V37H23.9976V37.0001C21.2379 36.9991 19.0009 34.7622 18.9996 32.0026H18.9998V18ZM21.9998 23.1V20.6H31.9998V23.1H21.9998ZM21.9998 25.8V28.3H31.9998V25.8H21.9998ZM21.9998 33.5V31H31.9998V33.5H21.9998Z" fill="#C82A87"/>
</g>
<defs>
<clipPath id="clip0_2130_18577">
<rect width="54" height="54" fill="white"/>
</clipPath>
</defs>
</svg>
