<svg aria-hidden="true" width="54" height="54" viewBox="0 0 54 54" fill="none" xmlns="http://www.w3.org/2000/svg">
<path fill-rule="evenodd" clip-rule="evenodd" d="M36 31.7088C36.6125 31.8961 37.2889 32 38 32C40.7614 32 43 30.433 43 28.5C43 26.567 40.7614 25 38 25C37.2889 25 36.6125 25.1039 36 25.2912C34.2341 25.8313 33 27.0648 33 28.5C33 29.9352 34.2341 31.1687 36 31.7088ZM31 23.1439V7L11 7V30C11 32.7614 13.2386 35 16 35H28.2C28.4444 34.0972 28.9049 33.2533 29.5394 32.5C28.5643 31.3423 28 29.9706 28 28.5C28 26.402 29.1486 24.5051 31 23.1439ZM29.1534 40H16C10.4772 40 6 35.5228 6 30V7V2H11H31H36V7V21.15C36.6462 21.0516 37.3151 21 38 21C43.5228 21 48 24.3579 48 28.5C48 29.9706 47.4357 31.3423 46.4606 32.5C47.4357 33.6577 48 35.0294 48 36.5C48 37.9706 47.4357 39.3423 46.4606 40.5C47.4357 41.6577 48 43.0294 48 44.5C48 48.6421 43.5228 52 38 52C32.4772 52 28 48.6421 28 44.5C28 43.0294 28.5643 41.6577 29.5394 40.5C29.4025 40.3374 29.2737 40.1707 29.1534 40ZM36 39.7088C36.6125 39.8961 37.2889 40 38 40C40.7614 40 43 38.433 43 36.5C43 36.0232 42.8638 35.5687 42.6172 35.1544C41.2359 35.6946 39.6655 36 38 36C36.3345 36 34.7641 35.6946 33.3828 35.1544C33.1362 35.5687 33 36.0232 33 36.5C33 37.9352 34.2341 39.1687 36 39.7088ZM14 21H16.5V31H14V21ZM22 16H19.5V31H22V16ZM25 11H27.5V31H25V11ZM33 44.5C33 44.0232 33.1362 43.5687 33.3828 43.1544C34.7641 43.6946 36.3345 44 38 44C39.6655 44 41.2359 43.6946 42.6172 43.1544C42.8638 43.5687 43 44.0232 43 44.5C43 46.433 40.7614 48 38 48C35.2386 48 33 46.433 33 44.5Z" fill="#C82A87"/>
</svg>
