<svg
              width="16"
              height="16"
              viewBox="0 0 16 16"
              fill="none"
              xmlns="http://www.w3.org/2000/svg"
							aria-hidden="true"
            >
              <path
                fillRule="evenodd"
                clipRule="evenodd"
                d="M14.811 12.4756L14.1375 13.1494L11.4358 10.4472L12.1098 9.77352C12.2761 9.60873 12.5441 9.60873 12.7104 9.77352L14.8104 11.8748V11.875C14.9757 12.0409 14.9757 12.3095 14.8104 12.4756L14.811 12.4756ZM10.7015 14.9363C11.7568 14.9384 12.7691 14.5196 13.5148 13.7731L13.8105 13.4765L11.1089 10.7742L10.4725 11.4107L10.4727 11.4105C10.2202 11.6623 9.87829 11.8038 9.52162 11.8038C9.16511 11.8038 8.82327 11.6623 8.57076 11.4105L4.58859 7.42832C4.33682 7.176 4.19546 6.83395 4.19546 6.47765C4.19546 6.12114 4.33682 5.7793 4.58859 5.52679L5.22599 4.88957L2.52337 2.1884L2.22674 2.48503C1.48185 3.23156 1.06349 4.24322 1.06349 5.2979C1.06349 6.35259 1.48188 7.36406 2.22674 8.11078L7.88877 13.7728C8.63436 14.5193 9.64658 14.9381 10.7016 14.9364L10.7015 14.9363ZM3.52403 1.1879C3.69011 1.02237 3.95872 1.02237 4.12459 1.1879L6.22591 3.2894C6.39143 3.45529 6.39143 3.72409 6.22591 3.88996L5.55227 4.56341L2.85016 1.86168L3.52403 1.1879ZM15.1383 11.5482L13.0371 9.4469C12.8707 9.28064 12.6453 9.18744 12.41 9.18744C12.1749 9.18744 11.9493 9.28064 11.7828 9.4469L10.1455 11.0844C9.97979 11.2498 9.7553 11.3426 9.52131 11.3426C9.2873 11.3426 9.063 11.2498 8.89731 11.0844L4.91533 7.10245C4.74999 6.93692 4.65715 6.71243 4.65715 6.47845C4.65715 6.24462 4.74999 6.02013 4.91533 5.85459L6.55305 4.21706C6.71913 4.05043 6.81232 3.82484 6.81232 3.58973C6.81232 3.35462 6.71912 3.12903 6.55305 2.96259L4.45173 0.860899C4.28511 0.695003 4.05952 0.601807 3.82441 0.601807C3.5893 0.601807 3.36371 0.695008 3.19708 0.860899L1.90014 2.1584C1.06867 2.9917 0.601562 4.12091 0.601562 5.29809C0.601562 6.47526 1.06866 7.60429 1.90014 8.43763L7.56217 14.0997C8.39547 14.9311 9.52469 15.3981 10.702 15.3981C11.8792 15.3981 13.0084 14.9311 13.8419 14.0997L15.1383 12.8024C15.3042 12.6359 15.3974 12.4103 15.3974 12.1752C15.3974 11.9401 15.3042 11.7145 15.1383 11.5481L15.1383 11.5482Z"
                fill="#122A85"
              />
            </svg>