      <svg aria-hidden="true" width="26" height="28" viewBox="0 0 48 48" fill="#c82a87" xmlns="http://www.w3.org/2000/svg">
          <rect width="48" height="48" fill="transparent" />
          <path d="M35.1841 22.6567L30.2637 27.5771C29.4627 28.3781 27.9751 28.3781 27.1741 27.5771L20.6517 21.0547C19.8507 20.2537 19.8507 18.7662 20.6517 17.9652L25.5721 13.0448L12.5274 0L6.00497 6.40796C3.37313 9.0398 2 12.4726 2 16.1343C2 19.796 3.37313 23.2289 6.00497 25.8607L22.1393 41.995C24.7711 44.6269 28.204 46 31.8657 46C35.5274 46 38.9602 44.6269 41.592 41.995L48 35.4726L35.1841 22.6567ZM31.8657 41.5373C29.4627 41.5373 27.0597 40.6219 25.3433 38.9055L9.20895 22.6567C5.66169 19.1094 5.66169 13.2736 9.20895 9.72637L12.4129 6.52239L18.9353 13.0448L17.3333 14.7612C14.7015 17.393 14.7015 21.7413 17.3333 24.3731L23.8557 30.8955C25.2289 32.2687 26.9453 32.8408 28.6617 32.8408C30.3781 32.8408 32.0945 32.1542 33.4677 30.8955L35.1841 29.1791L41.7065 35.7015L38.5025 38.9055C36.6716 40.5075 34.3831 41.5373 31.8657 41.5373Z" fill="#C82A87" />
        </svg>