<svg aria-hidden="true" width="27" height="23" viewBox="0 0 27 23">
<path d="M5.34985 13.9942C5.29985 14.0142 5.24995 14.0242 5.19995 14.0342C4.98995 14.0842 4.77981 14.1241 4.55981 14.1441C4.28981 14.1741 4.00998 14.1744 3.72998 14.1744C3.51998 14.1644 3.30986 14.1443 3.10986 14.1143C3.05986 14.1043 3.00996 14.1043 2.95996 14.0943C2.94996 14.0943 2.92994 14.1041 2.93994 14.1241C2.93994 14.1341 2.93995 14.1443 2.94995 14.1543C2.97995 14.2243 2.99979 14.3041 3.02979 14.3741C3.14979 14.6841 3.28997 14.9742 3.46997 15.2642C3.60997 15.5042 3.76995 15.7241 3.94995 15.9341C4.13995 16.1641 4.35984 16.384 4.58984 16.584C4.86984 16.824 5.16999 17.0339 5.48999 17.2139C5.75999 17.3639 6.03982 17.4943 6.31982 17.5943C6.59982 17.6943 6.87992 17.7643 7.16992 17.8243C7.19992 17.8343 7.23978 17.8343 7.26978 17.8443C7.42978 17.8643 7.57999 17.8841 7.73999 17.8941C7.80999 17.8941 7.88996 17.9044 7.95996 17.9044C7.96996 17.9044 7.99 17.9041 8 17.9141C8 17.9141 8.00977 17.9241 8.00977 17.9341C8.00977 17.9541 7.98998 17.9642 7.97998 17.9742C7.85998 18.0642 7.73987 18.1539 7.61987 18.2339C7.42987 18.3739 7.23979 18.4943 7.03979 18.6143C6.71979 18.8143 6.3798 18.9941 6.03979 19.1641C5.67979 19.3441 5.29992 19.4941 4.91992 19.6241C4.65992 19.7141 4.39989 19.7943 4.13989 19.8643C4.07989 19.8843 4.01996 19.8944 3.95996 19.9044C3.73996 19.9643 3.5198 20.0043 3.2998 20.0543C3.1498 20.0843 2.98984 20.1043 2.83984 20.1343C2.63984 20.1643 2.45 20.1842 2.25 20.2042C2.11 20.2142 1.96984 20.2239 1.83984 20.2339C1.45984 20.2539 1.06994 20.2539 0.689941 20.2339C0.469941 20.2239 0.249785 20.2141 0.0297852 20.1841C0.0197852 20.1841 0.0197656 20.1841 0.00976562 20.1841H0C0 20.1941 0 20.2042 0 20.2042C0.02 20.2242 0.0498242 20.244 0.0698242 20.254C0.329824 20.424 0.599883 20.5839 0.879883 20.7339C1.08988 20.8439 1.29977 20.954 1.50977 21.064C1.76977 21.194 2.03981 21.3144 2.30981 21.4244C2.56981 21.5344 2.82985 21.6339 3.09985 21.7339C3.45985 21.8639 3.82996 21.984 4.20996 22.084C4.40996 22.134 4.60981 22.1939 4.80981 22.2339C5.07981 22.2939 5.35988 22.3544 5.62988 22.4044C5.77988 22.4344 5.92983 22.4542 6.07983 22.4742C6.39983 22.5242 6.71979 22.564 7.03979 22.584C7.25979 22.604 7.48996 22.6141 7.70996 22.6241C8.09996 22.6441 8.48988 22.6443 8.87988 22.6343C9.21988 22.6243 9.56991 22.6043 9.90991 22.5743C10.0899 22.5543 10.27 22.5442 10.45 22.5142C10.76 22.4742 11.0799 22.4341 11.3899 22.3741C11.5599 22.3441 11.7399 22.304 11.9099 22.274C12.1699 22.214 12.4299 22.154 12.6799 22.084C12.9199 22.014 13.1599 21.9441 13.3899 21.8741C13.5299 21.8241 13.6598 21.7839 13.7998 21.7339C14.0398 21.6439 14.2898 21.5542 14.5198 21.4542C14.5898 21.4242 14.67 21.3941 14.74 21.3541C14.94 21.2641 15.1398 21.1743 15.3398 21.0743C15.5098 20.9943 15.6799 20.9043 15.8499 20.8043C16.0699 20.6843 16.28 20.5641 16.49 20.4341C16.69 20.3141 16.8898 20.184 17.0898 20.044C17.3198 19.884 17.5398 19.7243 17.7598 19.5543C18.0298 19.3443 18.2898 19.1343 18.5498 18.9044C18.7098 18.7644 18.8598 18.6239 19.0098 18.4839C19.1798 18.3239 19.34 18.1642 19.5 17.9942C19.67 17.8142 19.8398 17.6241 20.0098 17.4341C20.1898 17.2341 20.3598 17.024 20.5198 16.814C20.6098 16.704 20.6898 16.5839 20.7798 16.4639C20.9198 16.2739 21.0499 16.0841 21.1799 15.8941C21.2699 15.7541 21.36 15.6142 21.45 15.4742C21.55 15.3242 21.64 15.164 21.73 15.004C21.82 14.844 21.91 14.6742 22 14.5142C22.09 14.3342 22.1898 14.1542 22.2798 13.9742C22.4198 13.6842 22.5499 13.3943 22.6799 13.0943C22.7899 12.8243 22.9 12.5542 22.99 12.2842C23.06 12.0942 23.1199 11.9039 23.1799 11.7139C23.2299 11.5439 23.2798 11.3742 23.3298 11.2042C23.3898 10.9942 23.44 10.784 23.49 10.584C23.56 10.294 23.6199 10.0039 23.6699 9.71392C23.6899 9.57392 23.72 9.44425 23.74 9.30425C23.76 9.14425 23.7898 8.97402 23.8098 8.81402C23.8298 8.63402 23.8499 8.44421 23.8699 8.26421C23.8799 8.14421 23.8899 8.02435 23.8899 7.90435C23.9099 7.64435 23.9199 7.38431 23.9199 7.11431C23.9199 6.89431 23.9099 6.67439 23.9099 6.44439C23.9099 6.41439 23.9099 6.39431 23.9099 6.36431C23.9099 6.34431 23.9199 6.32402 23.9399 6.31402C23.9799 6.28402 24.0098 6.26394 24.0398 6.23394C24.2098 6.11394 24.3798 5.97429 24.5398 5.84429C24.7098 5.70429 24.8798 5.5541 25.0498 5.3941C25.2798 5.1741 25.5 4.94415 25.72 4.70415C25.87 4.53415 26.0099 4.36413 26.1499 4.18413C26.2799 4.01413 26.4098 3.84437 26.5298 3.67437C26.5498 3.64437 26.5598 3.60427 26.5498 3.57427C26.5498 3.56427 26.5298 3.55425 26.5198 3.55425C26.4998 3.56425 26.48 3.56427 26.46 3.57427C26.32 3.63427 26.1798 3.68419 26.0398 3.74419C25.8898 3.80419 25.7398 3.84435 25.5898 3.90435C25.4098 3.96435 25.2398 4.01402 25.0598 4.06402C24.7798 4.14402 24.5 4.20396 24.21 4.25396C24.02 4.29396 23.8299 4.31429 23.6299 4.34429C23.6099 4.34429 23.5898 4.34429 23.5698 4.34429H23.5598C23.5598 4.33429 23.5598 4.32427 23.5598 4.32427C23.6098 4.29427 23.65 4.26417 23.7 4.22417C23.88 4.10417 24.06 3.97427 24.22 3.82427C24.44 3.63427 24.6498 3.42415 24.8398 3.20415C25.0198 2.99415 25.1898 2.76398 25.3298 2.52398C25.4198 2.37398 25.4998 2.22427 25.5798 2.07427C25.6798 1.87427 25.7698 1.66415 25.8398 1.45415C25.8498 1.42415 25.8599 1.40408 25.8599 1.37408C25.8599 1.36408 25.8599 1.36406 25.8599 1.35406C25.8599 1.35406 25.8599 1.34429 25.8499 1.34429C25.8399 1.34429 25.8398 1.34429 25.8298 1.34429C25.7598 1.38429 25.6899 1.42415 25.6299 1.45415C25.3299 1.61415 25.03 1.77435 24.72 1.90435C24.44 2.02435 24.1599 2.13394 23.8699 2.23394C23.6699 2.30394 23.46 2.36437 23.25 2.42437C22.99 2.49437 22.74 2.55431 22.48 2.61431C22.46 2.61431 22.4399 2.62408 22.4199 2.62408C22.4099 2.62408 22.3999 2.62431 22.3899 2.61431C22.3699 2.60431 22.3498 2.58402 22.3398 2.56402C22.2098 2.43402 22.0799 2.31439 21.9399 2.19439C21.7899 2.06439 21.63 1.94404 21.47 1.83404C21.25 1.68404 21.0198 1.55413 20.7798 1.43413C20.5598 1.33413 20.3399 1.23412 20.1099 1.16412C19.9199 1.10412 19.7298 1.05421 19.5298 1.01421C19.2598 0.954213 18.99 0.924349 18.71 0.904349C18.29 0.884349 17.88 0.904174 17.46 0.974174C17.21 1.01417 16.97 1.07435 16.74 1.15435C16.48 1.23435 16.23 1.33415 15.99 1.45415C15.75 1.57415 15.5298 1.70406 15.3098 1.85406C15.0198 2.05406 14.74 2.284 14.49 2.544C14.32 2.724 14.1598 2.90406 14.0098 3.10406C13.8698 3.29406 13.7299 3.50392 13.6199 3.71392C13.5099 3.91392 13.4098 4.11427 13.3298 4.32427C13.2698 4.46427 13.2199 4.61421 13.1699 4.76421C13.1099 4.94421 13.0698 5.13427 13.0298 5.32427C12.9998 5.48427 12.98 5.65427 12.96 5.82427C12.93 6.07427 12.9199 6.32404 12.9299 6.58404C12.9299 6.72404 12.95 6.86396 12.96 7.00396C12.98 7.19396 13.0098 7.37402 13.0498 7.56402C13.0498 7.58402 13.0598 7.59431 13.0598 7.61431C13.0598 7.62431 13.0498 7.6441 13.0398 7.6441C13.0198 7.6441 13.01 7.6441 12.99 7.6441C12.9 7.6341 12.81 7.63408 12.72 7.62408C12.31 7.59408 11.9098 7.55394 11.5098 7.48394C11.3598 7.46394 11.1998 7.43435 11.0498 7.40435C10.6998 7.33435 10.3498 7.26437 10.0098 7.17437C9.74977 7.10437 9.48998 7.03415 9.22998 6.95415C9.08998 6.90415 8.93981 6.86402 8.7998 6.81402C8.5498 6.72402 8.2998 6.63423 8.0498 6.53423C7.8298 6.44423 7.61991 6.35421 7.40991 6.26421C7.22991 6.18421 7.04986 6.09396 6.85986 6.00396C6.59986 5.87396 6.34985 5.74429 6.09985 5.59429C5.79985 5.42429 5.50998 5.24425 5.22998 5.05425C5.02998 4.92425 4.8399 4.78435 4.6499 4.65435C4.4699 4.52435 4.28987 4.38419 4.11987 4.24419C3.96987 4.12419 3.80991 3.99431 3.65991 3.86431C3.46991 3.70431 3.28986 3.54408 3.10986 3.37408C2.64986 2.93408 2.21981 2.47394 1.80981 1.98394C1.79981 1.97394 1.78979 1.96415 1.77979 1.95415C1.76979 1.94415 1.75 1.94415 1.75 1.95415C1.74 1.96415 1.72997 1.98419 1.71997 1.99419C1.68997 2.05419 1.65988 2.10412 1.62988 2.16412C1.46988 2.46412 1.34 2.78406 1.25 3.10406C1.18 3.33406 1.12984 3.554 1.08984 3.794C1.06984 3.944 1.04979 4.08394 1.02979 4.23394C1.00979 4.47394 0.999775 4.71415 1.01978 4.95415C1.02978 5.09415 1.03981 5.23408 1.05981 5.37408C1.07981 5.56408 1.10991 5.74413 1.15991 5.93413C1.22991 6.21413 1.30992 6.49421 1.41992 6.76421C1.45992 6.85421 1.48979 6.93398 1.52979 7.02398C1.61979 7.21398 1.71983 7.40404 1.82983 7.58404C1.90983 7.71404 1.99983 7.83392 2.07983 7.96392C2.22983 8.17392 2.39983 8.37425 2.57983 8.55425C2.75983 8.73425 2.9499 8.90402 3.1499 9.06402C3.2199 9.11402 3.28986 9.16417 3.35986 9.22417C3.36986 9.23417 3.37989 9.24396 3.38989 9.25396V9.26421C3.37989 9.26421 3.35985 9.27398 3.34985 9.27398C3.20985 9.27398 3.06993 9.25419 2.92993 9.24419C2.79993 9.22419 2.65979 9.20437 2.52979 9.17437C2.30979 9.13437 2.08988 9.07396 1.87988 9.00396C1.64988 8.92396 1.41995 8.83417 1.19995 8.72417C1.13995 8.69417 1.06977 8.66408 1.00977 8.62408C0.999766 8.62408 0.98998 8.61431 0.97998 8.61431C0.96998 8.61431 0.959961 8.61408 0.959961 8.62408C0.959961 8.64408 0.949951 8.67439 0.949951 8.69439C0.959951 9.00439 0.979785 9.31408 1.02979 9.62408C1.08979 9.95408 1.17979 10.274 1.28979 10.584C1.38979 10.864 1.51992 11.1343 1.66992 11.3843C1.81992 11.6343 1.97992 11.8841 2.16992 12.1041C2.46992 12.4741 2.81996 12.804 3.20996 13.084C3.50996 13.304 3.82993 13.4941 4.17993 13.6441C4.26993 13.6841 4.35996 13.7242 4.45996 13.7642C4.66996 13.8442 4.87985 13.9139 5.09985 13.9639C5.15985 13.9739 5.20978 13.994 5.26978 14.004C5.33978 13.964 5.34985 13.9742 5.34985 13.9942Z" />
</svg>
