<svg
    fill="none"
    height="42"
    viewBox="0 0 117 42"
    width="117"
    aria-hidden="true"
  >
    <clipPath id="a">
      <path d="m0 0h117v41.22h-117z" />
    </clipPath>
    <g clipPath="url(#a)">
      <path
        clipRule="evenodd"
        d="m40.29 0h76.71v41.22h-76.71z"
        fill="#d8e5f0"
        fillRule="evenodd"
      />
      <path
        clipRule="evenodd"
        d="m0 0h40.38v41.22h-40.38z"
        fill="#fff"
        fillRule="evenodd"
      />
      <path
        clipRule="evenodd"
        d="m0 39.8901h117v1.33h-117z"
        fill="#727271"
        fillRule="evenodd"
      />
      <path
        clipRule="evenodd"
        d="m115.67 0h1.33v39.89h-1.33z"
        fill="#727271"
        fillRule="evenodd"
      />
      <path
        clipRule="evenodd"
        d="m0 0h1.33v41.22h-1.33z"
        fill="#dadada"
        fillRule="evenodd"
      />
      <path
        clipRule="evenodd"
        d="m0 0h117v1.33h-117z"
        fill="#dadada"
        fillRule="evenodd"
      />
      <path
        d="m35.5098 13.0698.36 2.18-1.33 2.43c-.32-.63-.77-1.18-1.33-1.61-.5-.43-1.18-.6-1.82-.44-1.15.43-2.02 1.38-2.35 2.57-.36.97-.55 2-.56 3.04-.03.6.02 1.2.15 1.78-.52-1.1-.79-2.31-.77-3.52-.04-1.45.28-2.88.93-4.17.41-.99 1.27-1.72 2.31-1.97.74-.04 1.46.23 1.99.74.42.43.78.92 1.06 1.45l1.25-2.5z"
        fill="#1d1d1b"
      />
      <path
        d="m35.6702 25.41c-.27.47-.58.91-.92 1.33-.48.58-1.08 1.06-1.76 1.41-.6.31-1.28.42-1.94.33-.62-.09-1.21-.33-1.72-.7-.47-.36-.89-.77-1.25-1.24-.36-.51-.92-1.52-.92-1.52s.32 1.01.51 1.45c.26.59.58 1.14.96 1.66.62.95 1.57 1.63 2.66 1.91.87.16 1.77-.03 2.51-.52.37-.26.71-.55 1.02-.88.29-.32.56-.67.8-1.04.12-.19.32-.59.32-.59l-.32-1.69z"
        fill="#1d1d1b"
      />
      <path
        d="m12.3 13.1602 3.06 10.4 3.05-10.4h2.22l-5.06 17.09h-.21l-3.17-10.59-3.16 10.59h-.22l-5.06-17.09h2.22l3.06 10.4 2.07-7.01-1.02-3.39z"
        fill="#0b5196"
      />
      <path
        d="m26.9201 24.7699c.05 1.41-.39 2.79-1.24 3.91-1.36 1.74-3.86 2.05-5.6.69-.05-.04-.1-.08-.15-.12-.77-.68-1.33-1.56-1.62-2.54l1.73-.72c.21.58.55 1.1 1 1.53.4.37.92.56 1.46.56.65-.03 1.22-.42 1.5-1 .42-.72.63-1.54.61-2.38.05-.84-.18-1.68-.65-2.38-.59-.7-1.47-1.07-2.38-1h-.84v-1.01l2.95-5.11h-3.56l-1 1.69h-.64v-3.74h8.23v1.04l-3.12 5.32c1.04.31 1.92.99 2.49 1.91.58.99.87 2.12.84 3.27z"
        fill="#0b5196"
      />
      <path
        d="m68.33 19.5802h-2.38l-1.33-5.17c-.05-.19-.14-.57-.25-1.14-.12-.58-.18-.96-.2-1.16 0 .24-.07.63-.2 1.17s-.22.92-.25 1.14l-1.33 5.16h-2.37l-2.52-9.85002h2.05l1.26 5.32002c.22.99.38 1.85.48 2.58 0-.26.06-.65.19-1.18.09-.53.19-.96.27-1.25l1.44-5.52002h1.97l1.44 5.52002c.06.25.14.62.24 1.13s.17.95.21 1.33c.04-.35.12-.8.21-1.33.1-.53.19-.98.27-1.33l1.25-5.32002h2.06z"
        fill="#1d1d1b"
      />
      <path
        d="m77.55 19.5799-.72-2.34h-3.59l-.72 2.34h-2.25l3.47-9.88996h2.55l3.48 9.88996zm-1.21-4.09-1.12-3.6c-.08-.28-.15-.49-.17-.66-.15.58-.59 2-1.33 4.27h2.62z"
        fill="#1d1d1b"
      />
      <path
        d="m85.7002 19.58h-4.48v-1.18l1.2-.56v-6.37l-1.2-.56v-1.18002h4.48v1.18002l-1.2.56v6.37l1.2.56z"
        fill="#1d1d1b"
      />
      <path d="m87.8398 16.3299v-1.7h3.62v1.69z" fill="#1d1d1b" />
      <path
        d="m99.1601 19.58-.77-2.3h-3.59l-.72 2.34h-2.25l3.47-9.89002h2.55l3.4799 9.89002zm-1.21-4.09-1.12-3.6c-.08-.28-.15-.49-.17-.66-.15.58-.59 2-1.33 4.27h2.62z"
        fill="#144072"
      />
      <path
        d="m109.25 19.5799-.72-2.34h-3.59l-.72 2.34h-2.25l3.47-9.88996h2.56l3.48 9.88996zm-1.21-4.09-1.12-3.6c-.08-.28-.15-.49-.17-.66-.15.58-.59 2-1.33 4.27h2.62z"
        fill="#144072"
      />
      <g fill="#1d1d1b">
        <path d="m62.8598 35.0498h-2.29l-1.33-4.99c0-.17-.13-.55-.24-1.1s-.19-.93-.2-1.12c0 .23-.07.61-.2 1.13s-.21.89-.24 1.1l-1.33 4.97h-2.29l-2.42-9.49h1.98l1.21 5.19c.21.96.37 1.79.47 2.49 0-.25.06-.63.17-1.14.12-.51.2-.92.27-1.21l1.33-5.32h2.07l1.33 5.32c0 .24.13.6.23 1.09s.16.9.21 1.26c0-.34.07-.76.21-1.26.14-.51.23-.91.27-1.22l1.21-5.19h1.98z" />
        <path d="m69.8902 27.1c-.69-.03-1.35.29-1.76.85-.45.71-.67 1.54-.62 2.38 0 2.12.79 3.18 2.38 3.18.83-.03 1.65-.2 2.42-.51v1.69c-.84.34-1.75.51-2.66.49-1.19.08-2.35-.38-3.16-1.25-.8-1.03-1.19-2.31-1.1-3.6-.03-.92.16-1.83.55-2.66.33-.71.88-1.3 1.56-1.7.72-.41 1.54-.62 2.37-.6.96.01 1.91.24 2.78.66l-.65 1.64c-.35-.17-.71-.31-1.08-.44-.34-.1-.68-.14-1.03-.13z" />
        <path d="m79.9602 35.05-.69-2.26h-3.48l-.69 2.26h-2.17l3.35-9.53h2.46l3.36 9.53zm-1.17-3.99-1.08-3.47c-.08-.27-.13-.48-.17-.64-.14.56-.55 1.93-1.22 4.11z" />
        <path d="m86.2598 29.7201h3.76v4.92c-.56.19-1.14.33-1.73.43-.55.08-1.1.12-1.65.12-1.23.08-2.43-.38-3.28-1.26-.81-1.03-1.21-2.32-1.13-3.63-.08-1.33.41-2.63 1.33-3.59.99-.92 2.3-1.39 3.64-1.33.97 0 1.93.2 2.82.59l-.66 1.61c-.67-.34-1.41-.52-2.17-.52-.8-.04-1.57.28-2.1.88-.55.66-.83 1.5-.78 2.35-.06.84.17 1.67.64 2.37.44.55 1.13.85 1.83.81.45 0 .89-.04 1.33-.13v-1.98h-1.79z" />
        <path d="m103.04 35.0502h-6.3699v-1.33l2.23-2.41.77-.84c.21-.23.4099-.48.5799-.74.16-.23.29-.48.39-.74.09-.26.14-.53.13-.81.02-.28-.09-.55-.29-.74-.21-.18-.4899-.28-.7699-.27-.34 0-.68.09-.98.25-.36.2-.7.44-1 .72l-1.09-1.33c.2-.17.4-.35.61-.51.46-.35.98-.6 1.54-.73.34-.08.69-.12 1.04-.12.4199-.01.8299.06 1.2199.19.34.11.66.29.93.53.25.23.45.52.58.84.14.35.21.73.2 1.1 0 .36-.07.72-.2 1.06-.14.35-.32.69-.53 1-.24.34-.5.67-.78.97-.29.32-.61.65-.94.98l-1.1399 1.14v.09h3.8699z" />
        <path d="m105.03 34.1199c0-.18.03-.35.09-.52.05-.13.13-.25.24-.35.11-.09.23-.15.36-.19.15-.02.3-.02.45 0 .15-.02.29-.02.44 0 .13.04.25.1.36.19s.2.21.25.35c.07.16.1.34.09.52 0 .17-.03.35-.09.51-.06.13-.14.25-.25.35-.1.09-.23.16-.36.2-.15.02-.29.02-.44 0-.15.02-.3.02-.45 0-.13-.04-.25-.11-.36-.2-.11-.1-.19-.21-.24-.35-.06-.17-.09-.34-.09-.51z" />
        <path d="m111.5 35.0499h-2.01v-5.49c0-.11 0-.25 0-.4s0-.32 0-.49v-1l-.11.12-.17.17-.2.19-.2.17-1.12.93-.97-1.21 3.06-2.43h1.65z" />
      </g>
    </g>
  </svg>
