<svg aria-hidden="true" width="26" height="28" viewBox="0 0 48 48" fill="#c82a87" xmlns="http://www.w3.org/2000/svg">
          <rect width="48" height="48" fill="transparent" />
          <g clipPath="url(#clip0_7325_2733)">
            <path d="M34.3333 10.9091H18.3V13.7455H34.3333V10.9091Z" fill="#C82A87" />
            <path d="M34.3333 18.2182H18.3V21.0546H34.3333V18.2182Z" fill="#C82A87" />
            <path d="M34.3333 25.5273H18.3V28.3636H34.3333V25.5273Z" fill="#C82A87" />
            <path d="M15.4833 10.9091H12.6667V13.7455H15.4833V10.9091Z" fill="#C82A87" />
            <path d="M15.4833 18.2182H12.6667V21.0546H15.4833V18.2182Z" fill="#C82A87" />
            <path d="M15.4833 25.5273H12.6667V28.3636H15.4833V25.5273Z" fill="#C82A87" />
            <path d="M23.5 0C13.75 0 4 0 4 0V30.4364C4 35.3455 7.9 39.2727 12.775 39.2727H21.3333V43.6364H13.75V48H21.3333H25.6667H33.25V43.6364H25.6667V39.2727H43V23.2364V0C43 0 33.25 0 23.5 0ZM38.6667 23.2364V34.9091H12.775C10.2833 34.9091 8.33333 32.9455 8.33333 30.4364V4.36364C11.8 4.36364 17.2167 4.36364 23.5 4.36364C29.7833 4.36364 35.2 4.36364 38.6667 4.36364V23.2364Z" fill="#C82A87" />
          </g>
          <defs>
            <clipPath id="clip0_7325_2733">
              <rect width="39" height="48" fill="white" transform="translate(4)" />
            </clipPath>
          </defs>
        </svg>