        <svg
          width="26"
          height="28"
          viewBox="0 0 48 48"
          fill="#c82a87"
          xmlns="http://www.w3.org/2000/svg"
					aria-hidden="true"
        >
          <rect width="48" height="48" fill="transparent" />
          <path
            fillRule="evenodd"
            clipRule="evenodd"
            d="M23.9876 43.6563H23.9794C20.6621 43.6551 17.4025 42.8228 14.5074 41.2437L4 44L6.81196 33.729C5.07741 30.7229 4.16469 27.3132 4.16618 23.8198C4.17053 12.8912 13.0622 4 23.9874 4C29.2898 4.00229 34.2664 6.06648 38.0086 9.81307C41.7508 13.5595 43.8106 18.5394 43.8085 23.8354C43.8041 34.7615 34.916 43.6518 23.9876 43.6563ZM14.9942 37.6554L15.5958 38.0124C18.1252 39.5134 21.0247 40.3077 23.9809 40.3088H23.9876C33.0678 40.3088 40.4582 32.9182 40.4618 23.8343C40.4635 19.4322 38.7516 15.2932 35.6412 12.1792C32.5308 9.06513 28.3944 7.34936 23.9941 7.34783C14.9068 7.34783 7.51633 14.7376 7.51273 23.8209C7.51145 26.9338 8.38244 29.9654 10.0316 32.5884L10.4233 33.2117L8.75898 39.291L14.9942 37.6554ZM33.9733 28.5488C33.8496 28.3422 33.5195 28.2183 33.0242 27.9703C32.5289 27.7224 30.094 26.5244 29.6399 26.359C29.1861 26.1938 28.8558 26.1112 28.5257 26.6068C28.1955 27.1026 27.2464 28.2183 26.9575 28.5488C26.6686 28.8792 26.3796 28.9207 25.8846 28.6727C25.3893 28.4249 23.7935 27.9019 21.9018 26.2146C20.4294 24.9013 19.4355 23.2795 19.1466 22.7837C18.8577 22.2879 19.1158 22.0199 19.3637 21.7729C19.5865 21.551 19.859 21.1944 20.1066 20.9052C20.3542 20.6161 20.4368 20.4094 20.6019 20.0791C20.767 19.7484 20.6844 19.4593 20.5606 19.2114C20.4368 18.9635 19.4463 16.5257 19.0336 15.534C18.6316 14.5683 18.2233 14.6991 17.9193 14.6839C17.6307 14.6694 17.3002 14.6663 16.9701 14.6663C16.6399 14.6663 16.1034 14.7903 15.6494 15.2861C15.1954 15.782 13.916 16.9802 13.916 19.4177C13.916 21.8555 15.6906 24.2105 15.9383 24.541C16.1859 24.8717 19.4306 29.874 24.3988 32.0193C25.5804 32.5296 26.5028 32.8343 27.2222 33.0625C28.4086 33.4396 29.4883 33.3864 30.3415 33.2588C31.2932 33.1167 33.2717 32.0608 33.6846 30.904C34.0971 29.7469 34.0971 28.7553 33.9733 28.5488Z"
            fill="#C82A87"
          />
        </svg>