<svg xmlns="http://www.w3.org/2000/svg" enable-background="new 0 0 64 64" viewBox="0 0 64 64"><path fill="#49729d" d="M42.3,16.2c0-5.2-4.6-9.3-10.3-9.3c-5.7,0-10.3,4.2-10.3,9.3c0,5.2,4.6,9.3,10.3,9.3
		C37.7,25.5,42.3,21.3,42.3,16.2z M29,20.4c-0.2-0.1-0.2-0.3-0.2-0.5l0.5-2.5l-2-1.8c-0.2-0.1-0.2-0.3-0.2-0.5
		c0.1-0.2,0.2-0.3,0.4-0.4l2.8-0.4l1.2-2.3c0.2-0.3,0.7-0.3,0.9,0l1.2,2.3l2.8,0.4c0.2,0,0.4,0.2,0.4,0.4c0.1,0.2,0,0.4-0.2,0.5
		l-2,1.8l0.5,2.5c0,0.2,0,0.4-0.2,0.5c-0.1,0.1-0.2,0.1-0.3,0.1c-0.1,0-0.2,0-0.2-0.1L32,19.3l-2.5,1.2C29.3,20.6,29.1,20.5,29,20.4
		z"/><path fill="#49729d" d="M32.2 18.2l1.8.9-.3-1.8c0-.2 0-.4.2-.5l1.4-1.2-1.9-.3c-.2 0-.3-.1-.4-.3L32 13.4l-.9 1.7c-.1.1-.2.2-.4.3l-1.9.3 1.4 1.2c.1.1.2.3.2.5L30 19.1l1.8-.9c.1 0 .1-.1.2-.1C32.1 18.2 32.2 18.2 32.2 18.2zM19.4 54.5c0 2.3 5.2 4.8 12.6 4.8 7.4 0 12.6-2.5 12.6-4.8 0-1.5-2.6-3.5-7.5-4.3-2.3 3.9-4 6.6-4.2 7-.2.3-.5.5-.9.5-.4 0-.7-.2-.9-.5-.2-.4-1.9-3.1-4.2-7C22 51 19.4 53 19.4 54.5z"/><path fill="#2d3e50" d="M50.2,16.5C50.2,7.4,42,0,32,0S13.8,7.4,13.8,16.5c0,8.1,14.4,32.1,18.2,38.2C35.7,48.6,50.2,24.6,50.2,16.5z
		 M19.6,16.2c0-6.3,5.6-11.4,12.4-11.4c6.8,0,12.4,5.1,12.4,11.4c0,6.3-5.6,11.4-12.4,11.4C25.2,27.6,19.6,22.5,19.6,16.2z"/><path fill="#2d3e50" d="M39.2,46.6c-0.3,0.6-0.6,1.1-1,1.7c5.2,1.1,8.4,3.4,8.4,6.2c0,3.9-6.3,6.8-14.6,6.8c-8.3,0-14.6-2.9-14.6-6.8
		c0-2.8,3.3-5.1,8.4-6.2c-0.3-0.5-0.6-1.1-1-1.7c-8.1,1.3-13.7,4.7-13.7,8.4c0,4.9,9.6,9,20.9,9c11.3,0,20.9-4.1,20.9-9
		C52.9,51.3,47.3,47.9,39.2,46.6z"/></svg>