<?xml version="1.0" encoding="utf-8"?>
<!-- Generator: Adobe Illustrator 26.4.0, SVG Export Plug-In . SVG Version: 6.00 Build 0)  -->
<svg version="1.1" id="final_live_text_new" xmlns="http://www.w3.org/2000/svg" xmlns:xlink="http://www.w3.org/1999/xlink"
	 x="0px" y="0px" viewBox="0 0 162 47" style="enable-background:new 0 0 162 47;" xml:space="preserve">
<style type="text/css">
	.st0{fill:#00A4DE;}
	.st1{fill:url(#SVGID_1_);}
	.st2{fill:url(#SVGID_00000155846889146340083340000011163961572307947932_);}
	.st3{fill:url(#SVGID_00000054971715540746590520000001069858785088701060_);}
	.st4{fill:url(#SVGID_00000147931810783607786230000003165044247417477046_);}
	.st5{fill:url(#SVGID_00000037688089775314615300000014752111962453274240_);}
	.st6{fill:url(#SVGID_00000119825612057569032880000008239264861039054265_);}
	.st7{fill:url(#SVGID_00000164481752124924555080000004834258550279253895_);}
	.st8{fill:url(#SVGID_00000139282792129559756010000005164156549677335474_);}
</style>
<g>
	<path class="st0" d="M74.4,12.1c-0.4,0.4-1,0.7-1.7,1.1c-0.8,0.3-1.7,0.5-2.9,0.5c-1.6,0-3-0.5-4-1.6c-1-1.1-1.5-2.5-1.5-4.3V7.3
		c0-1.8,0.5-3.3,1.5-4.4c1-1.1,2.3-1.7,4-1.7c1,0,1.8,0.2,2.6,0.5c0.8,0.3,1.4,0.7,2,1.2v2.4h-1.8l-0.3-1.6
		c-0.2-0.2-0.5-0.3-0.9-0.5S70.5,3,70,3c-1.1,0-1.9,0.4-2.5,1.2S66.7,6,66.7,7.3v0.4c0,1.2,0.3,2.2,0.9,3c0.6,0.7,1.4,1.1,2.5,1.1
		c0.5,0,0.9,0,1.2-0.1c0.3-0.1,0.5-0.2,0.7-0.3V9.3l-1.7-0.1V7.5h4.2L74.4,12.1L74.4,12.1z"/>
	<path class="st0" d="M88.4,5.9L87.5,6l-1.9,7.4h-2l-1.7-5.4h0l-1.7,5.4h-2L76.3,6l-0.9-0.1V4.4h4.1v1.5l-1,0.2l0.9,4.1h0l1.7-5.8
		h1.6l1.7,5.8h0l0.8-4.1l-1-0.2V4.4h4.1L88.4,5.9L88.4,5.9z"/>
	<path class="st0" d="M94.9,13.5c-0.1-0.2-0.1-0.3-0.2-0.5c0-0.2-0.1-0.3-0.1-0.5c-0.3,0.3-0.6,0.6-1.1,0.8
		c-0.4,0.2-0.9,0.3-1.4,0.3c-0.9,0-1.6-0.2-2.1-0.7c-0.5-0.5-0.8-1.1-0.8-2c0-0.8,0.3-1.5,1-2c0.7-0.5,1.7-0.7,3-0.7h1.2V7.4
		c0-0.4-0.1-0.8-0.4-1S93.5,6.1,93,6.1c-0.3,0-0.5,0-0.7,0.1s-0.4,0.1-0.5,0.2l-0.2,1h-1.8l0-2c0.4-0.3,1-0.6,1.5-0.8
		c0.6-0.2,1.2-0.3,1.9-0.3c1.1,0,2,0.3,2.7,0.8c0.7,0.5,1,1.3,1,2.3v3.7c0,0.1,0,0.3,0,0.4c0,0.1,0,0.2,0,0.4l0.7,0.1v1.5L94.9,13.5
		L94.9,13.5z M92.8,11.8c0.4,0,0.7-0.1,1-0.2s0.5-0.4,0.7-0.6V9.6h-1.2c-0.5,0-0.9,0.1-1.2,0.4c-0.3,0.2-0.4,0.5-0.4,0.9
		c0,0.3,0.1,0.5,0.3,0.7C92.2,11.8,92.5,11.8,92.8,11.8L92.8,11.8z"/>
	<path class="st0" d="M105.9,7.5h-1.6L104,6.4c-0.2-0.1-0.4-0.2-0.6-0.3C103.1,6,102.8,6,102.5,6c-0.4,0-0.8,0.1-1,0.3
		c-0.2,0.2-0.4,0.4-0.4,0.7c0,0.3,0.1,0.5,0.4,0.7c0.2,0.2,0.7,0.3,1.4,0.5c1.1,0.2,1.9,0.5,2.5,1s0.8,1,0.8,1.8c0,0.8-0.3,1.5-1,2
		c-0.7,0.5-1.6,0.8-2.8,0.8c-0.7,0-1.3-0.1-1.9-0.3c-0.6-0.2-1.1-0.5-1.5-0.9l0-2h1.7l0.3,1.2c0.1,0.1,0.3,0.2,0.6,0.3
		c0.2,0.1,0.5,0.1,0.8,0.1c0.5,0,0.9-0.1,1.1-0.3c0.3-0.2,0.4-0.4,0.4-0.7c0-0.3-0.1-0.5-0.4-0.7c-0.3-0.2-0.7-0.4-1.4-0.5
		c-1.1-0.2-1.9-0.5-2.4-1c-0.5-0.4-0.8-1-0.8-1.7s0.3-1.4,0.9-2s1.5-0.8,2.7-0.8c0.7,0,1.4,0.1,2,0.3s1.1,0.4,1.5,0.7L105.9,7.5
		L105.9,7.5z"/>
	<path class="st0" d="M112.9,13.5c-0.1-0.2-0.1-0.3-0.2-0.5c0-0.2-0.1-0.3-0.1-0.5c-0.3,0.3-0.6,0.6-1.1,0.8
		c-0.4,0.2-0.9,0.3-1.4,0.3c-0.9,0-1.6-0.2-2.1-0.7c-0.5-0.5-0.8-1.1-0.8-2c0-0.8,0.3-1.5,1-2c0.7-0.5,1.7-0.7,3-0.7h1.2V7.4
		c0-0.4-0.1-0.8-0.4-1c-0.3-0.2-0.6-0.4-1.1-0.4c-0.3,0-0.5,0-0.7,0.1s-0.4,0.1-0.5,0.2l-0.2,1h-1.8l0-2c0.4-0.3,1-0.6,1.5-0.8
		c0.6-0.2,1.2-0.3,1.9-0.3c1.1,0,2,0.3,2.7,0.8s1,1.3,1,2.3v3.7c0,0.1,0,0.3,0,0.4c0,0.1,0,0.2,0,0.4l0.7,0.1v1.5L112.9,13.5
		L112.9,13.5z M110.8,11.8c0.4,0,0.7-0.1,1-0.2c0.3-0.2,0.5-0.4,0.7-0.6V9.6h-1.2c-0.5,0-0.9,0.1-1.2,0.4c-0.3,0.2-0.4,0.5-0.4,0.9
		c0,0.3,0.1,0.5,0.3,0.7C110.2,11.8,110.5,11.8,110.8,11.8L110.8,11.8z"/>
	<path class="st0" d="M116.4,12l1.2-0.2V6.2l-1.3-0.2V4.4h3.6l0.1,1.3c0.3-0.5,0.7-0.8,1.1-1.1c0.4-0.3,0.9-0.4,1.5-0.4
		c0.9,0,1.6,0.3,2.1,0.9c0.5,0.6,0.8,1.5,0.8,2.7v3.9l1.2,0.2v1.5h-4.7V12l1-0.2V7.8c0-0.6-0.1-1-0.4-1.3c-0.2-0.3-0.6-0.4-1.1-0.4
		c-0.3,0-0.6,0.1-0.9,0.2s-0.5,0.3-0.6,0.6v4.8l1,0.2v1.5h-4.6L116.4,12L116.4,12z"/>
	<path class="st0" d="M133,13.5c-0.1-0.2-0.1-0.3-0.2-0.5c0-0.2-0.1-0.3-0.1-0.5c-0.3,0.3-0.6,0.6-1.1,0.8c-0.4,0.2-0.9,0.3-1.4,0.3
		c-0.9,0-1.6-0.2-2.1-0.7c-0.5-0.5-0.8-1.1-0.8-2c0-0.8,0.3-1.5,1-2c0.7-0.5,1.7-0.7,3-0.7h1.2V7.4c0-0.4-0.1-0.8-0.4-1
		s-0.6-0.4-1.1-0.4c-0.3,0-0.5,0-0.7,0.1s-0.4,0.1-0.5,0.2l-0.2,1h-1.8l0-2c0.4-0.3,1-0.6,1.5-0.8c0.6-0.2,1.2-0.3,1.9-0.3
		c1.1,0,2,0.3,2.7,0.8c0.7,0.5,1,1.3,1,2.3v3.7c0,0.1,0,0.3,0,0.4c0,0.1,0,0.2,0,0.4l0.7,0.1v1.5L133,13.5L133,13.5z M130.9,11.8
		c0.4,0,0.7-0.1,1-0.2c0.3-0.2,0.5-0.4,0.7-0.6V9.6h-1.2c-0.5,0-0.9,0.1-1.2,0.4c-0.3,0.2-0.4,0.5-0.4,0.9c0,0.3,0.1,0.5,0.3,0.7
		S130.5,11.8,130.9,11.8L130.9,11.8z"/>
	<path class="st0" d="M140.9,13.6c-1.3,0-2.3-0.4-3.1-1.3c-0.8-0.8-1.2-1.9-1.2-3.2V8.9c0-1.3,0.4-2.4,1.1-3.3
		c0.7-0.9,1.7-1.3,3-1.3c1.2,0,2.2,0.4,2.8,1.1c0.7,0.7,1,1.7,1,3v1.3h-5.4l0,0c0,0.6,0.2,1.1,0.6,1.5c0.4,0.4,0.8,0.6,1.4,0.6
		c0.5,0,1-0.1,1.3-0.2c0.4-0.1,0.7-0.3,1.2-0.5l0.7,1.5c-0.4,0.3-0.9,0.5-1.4,0.7C142.3,13.5,141.6,13.6,140.9,13.6L140.9,13.6z
		 M140.6,6.2c-0.5,0-0.8,0.2-1.1,0.5c-0.3,0.3-0.4,0.8-0.5,1.4l0,0h3V7.9c0-0.5-0.1-0.9-0.4-1.2C141.5,6.3,141.1,6.2,140.6,6.2
		L140.6,6.2z"/>
	<path class="st0" d="M149.1,2.2v2.2h1.6v1.7h-1.6v4.6c0,0.4,0.1,0.6,0.2,0.8c0.1,0.2,0.3,0.2,0.6,0.2c0.2,0,0.3,0,0.4,0
		c0.1,0,0.3,0,0.4-0.1l0.2,1.8c-0.3,0.1-0.5,0.1-0.8,0.2c-0.3,0-0.6,0.1-0.9,0.1c-0.8,0-1.5-0.2-1.9-0.7s-0.7-1.2-0.7-2.2V6.2h-1.3
		V4.4h1.3V2.2H149.1L149.1,2.2z"/>
	<path class="st0" d="M151.7,12l1.2-0.2V2.2l-1.3-0.2V0.5h3.7v5.1c0.3-0.4,0.6-0.7,1-1c0.4-0.2,0.9-0.3,1.4-0.3
		c0.9,0,1.7,0.3,2.2,0.9s0.8,1.6,0.8,2.9v3.6l1.2,0.2v1.5h-4.7V12l1.1-0.2V8.1c0-0.7-0.1-1.2-0.4-1.5s-0.6-0.4-1.1-0.4
		c-0.3,0-0.6,0.1-0.9,0.2c-0.3,0.1-0.5,0.3-0.6,0.5v4.9l1.1,0.2v1.5h-4.7L151.7,12L151.7,12z"/>
	<path class="st0" d="M64.2,27l0.9-0.1l3.7-10.6h2.5l3.7,10.6l0.9,0.1v1.5h-4.1V27l0.8-0.2L72,25.1H68l-0.5,1.7l0.8,0.2v1.5h-4.1
		L64.2,27L64.2,27z M68.6,23.3h2.8L70,19.1h0L68.6,23.3L68.6,23.3z"/>
	<path class="st0" d="M76.7,27l1.2-0.2v-5.6l-1.3-0.2v-1.5h3.6l0.1,1.3c0.2-0.5,0.5-0.8,0.8-1.1c0.3-0.3,0.7-0.4,1.2-0.4
		c0.1,0,0.3,0,0.4,0c0.1,0,0.3,0,0.4,0.1l-0.3,2.2l-1,0c-0.4,0-0.7,0.1-0.9,0.2c-0.2,0.1-0.4,0.3-0.5,0.6v4.4l1.2,0.2v1.5h-4.8
		L76.7,27L76.7,27z"/>
	<path class="st0" d="M83.6,27l1.2-0.2v-5.6l-1.3-0.2v-1.5h3.7v7.3l1.2,0.2v1.5h-4.8V27L83.6,27z M87.2,17.2h-2.4v-1.8h2.4V17.2z"/>
	<path class="st0" d="M94.8,28.4c-0.1-0.2-0.1-0.3-0.2-0.5s-0.1-0.3-0.1-0.5c-0.3,0.3-0.6,0.6-1.1,0.8c-0.4,0.2-0.9,0.3-1.4,0.3
		c-0.9,0-1.6-0.2-2.1-0.7c-0.5-0.5-0.8-1.1-0.8-2c0-0.8,0.3-1.5,1-2c0.7-0.5,1.7-0.7,3-0.7h1.2v-0.9c0-0.4-0.1-0.8-0.4-1
		S93.4,21,92.9,21c-0.3,0-0.5,0-0.7,0.1s-0.4,0.1-0.5,0.2l-0.2,1h-1.8l0-2c0.4-0.3,1-0.6,1.5-0.8c0.6-0.2,1.2-0.3,1.9-0.3
		c1.1,0,2,0.3,2.7,0.8c0.7,0.5,1,1.3,1,2.3v3.7c0,0.1,0,0.3,0,0.4c0,0.1,0,0.2,0,0.4l0.7,0.1v1.5L94.8,28.4L94.8,28.4z M92.7,26.8
		c0.4,0,0.7-0.1,1-0.2c0.3-0.2,0.5-0.4,0.7-0.6v-1.4h-1.2c-0.5,0-0.9,0.1-1.2,0.4c-0.3,0.2-0.4,0.5-0.4,0.9c0,0.3,0.1,0.5,0.3,0.7
		C92.1,26.7,92.4,26.8,92.7,26.8L92.7,26.8z"/>
	<path class="st0" d="M98.3,27l1.2-0.2v-5.6l-1.3-0.2v-1.5h3.6l0.1,1.3c0.3-0.5,0.7-0.8,1.1-1.1c0.4-0.3,0.9-0.4,1.5-0.4
		c0.9,0,1.6,0.3,2.1,0.9c0.5,0.6,0.8,1.5,0.8,2.7v3.9l1.2,0.2v1.5h-4.7V27l1-0.2v-3.9c0-0.6-0.1-1-0.4-1.3c-0.2-0.3-0.6-0.4-1.1-0.4
		c-0.3,0-0.6,0.1-0.9,0.2s-0.5,0.3-0.6,0.6v4.8l1,0.2v1.5h-4.6L98.3,27L98.3,27z"/>
	<path class="st0" d="M119,28.4c-0.1-0.2-0.1-0.3-0.2-0.5s-0.1-0.3-0.1-0.5c-0.3,0.3-0.6,0.6-1.1,0.8c-0.4,0.2-0.9,0.3-1.4,0.3
		c-0.9,0-1.6-0.2-2.1-0.7s-0.8-1.1-0.8-2c0-0.8,0.3-1.5,1-2c0.7-0.5,1.7-0.7,3-0.7h1.2v-0.9c0-0.4-0.1-0.8-0.4-1s-0.6-0.4-1.1-0.4
		c-0.3,0-0.5,0-0.7,0.1s-0.4,0.1-0.5,0.2l-0.2,1h-1.8l0-2c0.4-0.3,1-0.6,1.5-0.8c0.6-0.2,1.2-0.3,1.9-0.3c1.1,0,2,0.3,2.7,0.8
		c0.7,0.5,1,1.3,1,2.3v3.7c0,0.1,0,0.3,0,0.4c0,0.1,0,0.2,0,0.4l0.7,0.1v1.5L119,28.4L119,28.4z M116.9,26.8c0.4,0,0.7-0.1,1-0.2
		c0.3-0.2,0.5-0.4,0.7-0.6v-1.4h-1.2c-0.5,0-0.9,0.1-1.2,0.4c-0.3,0.2-0.4,0.5-0.4,0.9c0,0.3,0.1,0.5,0.3,0.7S116.5,26.8,116.9,26.8
		L116.9,26.8z"/>
	<path class="st0" d="M70.1,31.2c1.4,0,2.5,0.4,3.3,1.1c0.8,0.7,1.2,1.7,1.2,2.8c0,1.2-0.4,2.1-1.2,2.8c-0.8,0.7-1.9,1.1-3.3,1.1
		h-2.1v2.7l1.3,0.2v1.5h-5v-1.5l1.3-0.2v-8.7l-1.3-0.2v-1.5L70.1,31.2L70.1,31.2z M68.1,37.1h2.1c0.7,0,1.2-0.2,1.5-0.6
		c0.3-0.4,0.5-0.8,0.5-1.4c0-0.6-0.2-1.1-0.5-1.4c-0.3-0.4-0.9-0.6-1.5-0.6h-2.1V37.1z"/>
	<path class="st0" d="M75.2,41.9l1.2-0.2v-9.6l-1.3-0.2v-1.5h3.7v5.1c0.3-0.4,0.6-0.7,1-1c0.4-0.2,0.9-0.3,1.4-0.3
		c0.9,0,1.7,0.3,2.2,0.9s0.8,1.6,0.8,2.9v3.6l1.2,0.2v1.5h-4.7v-1.5l1.1-0.2V38c0-0.7-0.1-1.2-0.4-1.5c-0.2-0.3-0.6-0.4-1.1-0.4
		c-0.3,0-0.6,0.1-0.9,0.2c-0.3,0.1-0.5,0.3-0.6,0.5v4.9l1.1,0.2v1.5h-4.7L75.2,41.9L75.2,41.9z"/>
	<path class="st0" d="M90.4,43.5c-1.3,0-2.3-0.4-3.1-1.3c-0.8-0.8-1.2-1.9-1.2-3.2v-0.3c0-1.3,0.4-2.4,1.1-3.3
		c0.7-0.9,1.7-1.3,3-1.3c1.2,0,2.2,0.4,2.8,1.1c0.7,0.7,1,1.7,1,3v1.3h-5.4l0,0c0,0.6,0.2,1.1,0.6,1.5c0.4,0.4,0.8,0.6,1.4,0.6
		c0.5,0,1-0.1,1.3-0.2c0.4-0.1,0.7-0.3,1.2-0.5l0.7,1.5c-0.4,0.3-0.9,0.5-1.4,0.7S91.1,43.5,90.4,43.5L90.4,43.5z M90.1,36
		c-0.5,0-0.8,0.2-1.1,0.5c-0.3,0.3-0.4,0.8-0.5,1.4l0,0h3v-0.2c0-0.5-0.1-0.9-0.4-1.2C91,36.2,90.6,36,90.1,36L90.1,36z"/>
	<path class="st0" d="M94.9,41.9l1.2-0.2v-5.6l-1.3-0.2v-1.5h3.6l0.1,1.3c0.3-0.5,0.7-0.8,1.1-1.1c0.4-0.3,0.9-0.4,1.5-0.4
		c0.9,0,1.6,0.3,2.1,0.9c0.5,0.6,0.8,1.5,0.8,2.7v3.9l1.2,0.2v1.5h-4.7v-1.5l1-0.2v-3.9c0-0.6-0.1-1-0.4-1.3
		c-0.2-0.3-0.6-0.4-1.1-0.4c-0.3,0-0.6,0.1-0.9,0.2s-0.5,0.3-0.6,0.6v4.8l1,0.2v1.5h-4.6L94.9,41.9L94.9,41.9z"/>
	<path class="st0" d="M113.2,37.4h-1.6l-0.3-1.1c-0.2-0.1-0.4-0.2-0.6-0.3c-0.3-0.1-0.5-0.1-0.8-0.1c-0.4,0-0.8,0.1-1,0.3
		c-0.2,0.2-0.4,0.4-0.4,0.7c0,0.3,0.1,0.5,0.4,0.7s0.7,0.3,1.4,0.5c1.1,0.2,1.9,0.5,2.5,1c0.5,0.4,0.8,1,0.8,1.8c0,0.8-0.3,1.5-1,2
		c-0.7,0.5-1.6,0.8-2.8,0.8c-0.7,0-1.3-0.1-1.9-0.3c-0.6-0.2-1.1-0.5-1.5-0.9l0-2h1.7l0.3,1.2c0.1,0.1,0.3,0.2,0.6,0.3
		c0.2,0.1,0.5,0.1,0.8,0.1c0.5,0,0.9-0.1,1.1-0.3c0.3-0.2,0.4-0.4,0.4-0.7c0-0.3-0.1-0.5-0.4-0.7c-0.3-0.2-0.7-0.4-1.4-0.5
		c-1.1-0.2-1.9-0.5-2.4-1s-0.8-1-0.8-1.7c0-0.7,0.3-1.4,0.9-2c0.6-0.5,1.5-0.8,2.7-0.8c0.7,0,1.4,0.1,2,0.3s1.1,0.4,1.5,0.7
		L113.2,37.4L113.2,37.4z"/>
	<path class="st0" d="M114.4,41.9l1.2-0.2v-5.6l-1.3-0.2v-1.5h3.7v7.3l1.2,0.2v1.5h-4.8V41.9L114.4,41.9z M118,32.2h-2.4v-1.8h2.4
		V32.2z"/>
	<path class="st0" d="M129.3,35.8l-0.8,0.1l-3.3,8.8c-0.3,0.7-0.6,1.2-1,1.6c-0.4,0.4-1.1,0.7-2,0.7c-0.2,0-0.4,0-0.6,0
		c-0.2,0-0.4-0.1-0.6-0.1l0.3-1.8c0.1,0,0.2,0,0.2,0c0.1,0,0.2,0,0.2,0c0.4,0,0.7-0.1,0.9-0.3c0.2-0.2,0.4-0.4,0.5-0.7l0.3-0.7
		l-2.9-7.4l-0.8-0.1v-1.5h4.4v1.5l-1,0.2l1.2,3.6l0.1,0.7l0,0l1.4-4.3l-1-0.2v-1.5h4.4L129.3,35.8L129.3,35.8z"/>
	<path class="st0" d="M129.8,41.9l1.2-0.2v-5.6l-1.3-0.2v-1.5h3.6l0.1,1.3c0.3-0.5,0.7-0.8,1.1-1.1c0.4-0.3,0.9-0.4,1.5-0.4
		c0.9,0,1.6,0.3,2.1,0.9c0.5,0.6,0.8,1.5,0.8,2.7v3.9l1.2,0.2v1.5h-4.7v-1.5l1-0.2v-3.9c0-0.6-0.1-1-0.4-1.3
		c-0.2-0.3-0.6-0.4-1.1-0.4c-0.3,0-0.6,0.1-0.9,0.2c-0.3,0.1-0.5,0.3-0.6,0.6v4.8l1,0.2v1.5h-4.6L129.8,41.9L129.8,41.9z"/>
	<path class="st0" d="M146.5,43.4c-0.1-0.2-0.1-0.3-0.2-0.5c0-0.2-0.1-0.3-0.1-0.5c-0.3,0.3-0.6,0.6-1.1,0.8
		c-0.4,0.2-0.9,0.3-1.4,0.3c-0.9,0-1.6-0.2-2.1-0.7s-0.8-1.1-0.8-2c0-0.8,0.3-1.5,1-2c0.7-0.5,1.7-0.7,3-0.7h1.2v-0.9
		c0-0.4-0.1-0.8-0.4-1c-0.3-0.2-0.6-0.4-1.1-0.4c-0.3,0-0.5,0-0.7,0.1c-0.2,0.1-0.4,0.1-0.5,0.2l-0.2,1h-1.8l0-2
		c0.4-0.3,1-0.6,1.5-0.8c0.6-0.2,1.2-0.3,1.9-0.3c1.1,0,2,0.3,2.7,0.8c0.7,0.5,1,1.3,1,2.3v3.7c0,0.1,0,0.3,0,0.4c0,0.1,0,0.2,0,0.4
		l0.7,0.1v1.5L146.5,43.4L146.5,43.4z M144.3,41.7c0.4,0,0.7-0.1,1-0.2c0.3-0.2,0.5-0.4,0.7-0.6v-1.4h-1.2c-0.5,0-0.9,0.1-1.2,0.4
		c-0.3,0.2-0.4,0.5-0.4,0.9c0,0.3,0.1,0.5,0.3,0.7C143.7,41.6,144,41.7,144.3,41.7L144.3,41.7z"/>
	<path class="st0" d="M156.1,42.2c-0.3,0.4-0.6,0.7-1.1,1c-0.4,0.2-0.9,0.3-1.5,0.3c-1,0-1.7-0.3-2.2-0.9s-0.8-1.6-0.8-2.8v-3.7
		l-1-0.2v-1.5h3.4v5.5c0,0.7,0.1,1.1,0.3,1.4s0.5,0.4,1,0.4c0.4,0,0.7-0.1,1-0.2c0.3-0.1,0.5-0.3,0.7-0.5v-4.9l-1.1-0.2v-1.5h3.5
		v7.3l1.1,0.2v1.5h-3.2L156.1,42.2L156.1,42.2z"/>
</g>
<g>
	
		<linearGradient id="SVGID_1_" gradientUnits="userSpaceOnUse" x1="7.599390e-02" y1="38.6349" x2="33.419" y2="38.6349" gradientTransform="matrix(1 0 0 -1 0 48.33)">
		<stop  offset="0" style="stop-color:#143960"/>
		<stop  offset="0.22" style="stop-color:#133B63"/>
		<stop  offset="0.39" style="stop-color:#11446D"/>
		<stop  offset="0.55" style="stop-color:#0F527E"/>
		<stop  offset="0.7" style="stop-color:#0B6695"/>
		<stop  offset="0.85" style="stop-color:#0680B4"/>
		<stop  offset="0.99" style="stop-color:#00A0D9"/>
		<stop  offset="1" style="stop-color:#00A4DE"/>
	</linearGradient>
	<path class="st1" d="M33.4,3.1l-4.6,2.3L27,6.3L6.5,16.6l-5.4,2.7c-0.4,0.2-1-0.1-1-0.6v-5.3L20.7,3.1l1.8-0.9l4.3-2.1
		c0.2-0.1,0.4-0.1,0.6,0L33.4,3.1z"/>
	
		<linearGradient id="SVGID_00000169548757163434361200000011138710695536319397_" gradientUnits="userSpaceOnUse" x1="22.7678" y1="18.9827" x2="22.7678" y2="34.903" gradientTransform="matrix(1 0 0 -1 0 48.33)">
		<stop  offset="0.3" style="stop-color:#00A4DE"/>
		<stop  offset="0.45" style="stop-color:#0588BD"/>
		<stop  offset="0.9" style="stop-color:#143960"/>
	</linearGradient>
	<polygon style="fill:url(#SVGID_00000169548757163434361200000011138710695536319397_);" points="25.6,13.4 19.9,16.3 19.9,26.5 
		25.6,29.3 	"/>
	
		<linearGradient id="SVGID_00000134227432023695623650000002329340344046479282_" gradientUnits="userSpaceOnUse" x1="7.599390e-02" y1="28.5214" x2="25.6061" y2="28.5214" gradientTransform="matrix(1 0 0 -1 0 48.33)">
		<stop  offset="0" style="stop-color:#143960"/>
		<stop  offset="0.28" style="stop-color:#133B62"/>
		<stop  offset="0.45" style="stop-color:#12426A"/>
		<stop  offset="0.6" style="stop-color:#0F4E79"/>
		<stop  offset="0.72" style="stop-color:#0C5F8D"/>
		<stop  offset="0.83" style="stop-color:#0875A7"/>
		<stop  offset="0.94" style="stop-color:#0390C7"/>
		<stop  offset="1" style="stop-color:#00A4DE"/>
	</linearGradient>
	<path style="fill:url(#SVGID_00000134227432023695623650000002329340344046479282_);" d="M25.6,11.3v5.3L1.1,28.9
		c-0.4,0.2-1-0.1-1-0.6V23l24.5-12.3C25.1,10.5,25.6,10.8,25.6,11.3L25.6,11.3z"/>
	
		<linearGradient id="SVGID_00000173883519180130372200000006576632910207146123_" gradientUnits="userSpaceOnUse" x1="7.599390e-02" y1="15.7554" x2="25.6039" y2="15.7554" gradientTransform="matrix(1 0 0 -1 0 48.33)">
		<stop  offset="0" style="stop-color:#00A4DE"/>
		<stop  offset="7.000000e-02" style="stop-color:#0587BC"/>
		<stop  offset="0.15" style="stop-color:#096FA0"/>
		<stop  offset="0.24" style="stop-color:#0D5B88"/>
		<stop  offset="0.34" style="stop-color:#104B76"/>
		<stop  offset="0.47" style="stop-color:#124169"/>
		<stop  offset="0.63" style="stop-color:#133A62"/>
		<stop  offset="0.98" style="stop-color:#143960"/>
	</linearGradient>
	<path style="fill:url(#SVGID_00000173883519180130372200000006576632910207146123_);" d="M25.6,42.1v-6.4L0.1,23v6
		c0,0.3,0.1,0.5,0.4,0.6L25.6,42.1L25.6,42.1z"/>
	
		<linearGradient id="SVGID_00000027606177872839125310000008605207279506575755_" gradientUnits="userSpaceOnUse" x1="7.599390e-02" y1="25.5364" x2="25.6061" y2="25.5364" gradientTransform="matrix(1 0 0 -1 0 48.33)">
		<stop  offset="0" style="stop-color:#00A4DE"/>
		<stop  offset="1.000000e-02" style="stop-color:#019DD6"/>
		<stop  offset="7.000000e-02" style="stop-color:#0682B6"/>
		<stop  offset="0.13" style="stop-color:#0A6B9B"/>
		<stop  offset="0.2" style="stop-color:#0E5885"/>
		<stop  offset="0.28" style="stop-color:#104A74"/>
		<stop  offset="0.39" style="stop-color:#124068"/>
		<stop  offset="0.53" style="stop-color:#133A61"/>
		<stop  offset="0.93" style="stop-color:#143960"/>
	</linearGradient>
	<path style="fill:url(#SVGID_00000027606177872839125310000008605207279506575755_);" d="M19.2,23L16,21.4l-9.6-4.8l-6.4-3.2v6
		c0,0.3,0.1,0.5,0.4,0.6l2.8,1.4l6.4,3.2l9.6,4.8l5.4,2.7c0.4,0.2,1-0.1,1-0.6v-5.3L19.2,23L19.2,23z"/>
	
		<linearGradient id="SVGID_00000139974454604865815570000016689692728643094709_" gradientUnits="userSpaceOnUse" x1="27.044" y1="37.0799" x2="54.0313" y2="37.0799" gradientTransform="matrix(1 0 0 -1 0 48.33)">
		<stop  offset="0.42" style="stop-color:#00A4DE"/>
		<stop  offset="0.51" style="stop-color:#019DD6"/>
		<stop  offset="0.64" style="stop-color:#048BC0"/>
		<stop  offset="0.8" style="stop-color:#0A6E9E"/>
		<stop  offset="0.99" style="stop-color:#11456E"/>
		<stop  offset="1" style="stop-color:#12436B"/>
	</linearGradient>
	<path style="fill:url(#SVGID_00000139974454604865815570000016689692728643094709_);" d="M54,13.4v5.3c0,0.5-0.5,0.8-1,0.6l-26-13
		l1.8-0.9l4.6-2.3L54,13.4L54,13.4z"/>
	
		<linearGradient id="SVGID_00000156554721763051666130000012568343055988561313_" gradientUnits="userSpaceOnUse" x1="28.5034" y1="25.3308" x2="54.0313" y2="25.3308" gradientTransform="matrix(1 0 0 -1 0 48.33)">
		<stop  offset="0" style="stop-color:#00A4DE"/>
		<stop  offset="0.35" style="stop-color:#00A2DB"/>
		<stop  offset="0.52" style="stop-color:#019BD4"/>
		<stop  offset="0.64" style="stop-color:#0390C7"/>
		<stop  offset="0.75" style="stop-color:#0681B5"/>
		<stop  offset="0.84" style="stop-color:#0A6D9D"/>
		<stop  offset="0.93" style="stop-color:#0E5581"/>
		<stop  offset="1" style="stop-color:#143960"/>
	</linearGradient>
	<path style="fill:url(#SVGID_00000156554721763051666130000012568343055988561313_);" d="M54,13.4v6c0,0.3-0.1,0.5-0.4,0.6
		l-18.8,9.4l-6.4,3.2v-6c0-0.3,0.1-0.5,0.4-0.6L54,13.4L54,13.4z"/>
	
		<linearGradient id="SVGID_00000050653894272111478820000017135534824488630701_" gradientUnits="userSpaceOnUse" x1="31.3588" y1="6.1832" x2="31.3588" y2="18.9483" gradientTransform="matrix(1 0 0 -1 0 48.33)">
		<stop  offset="0.15" style="stop-color:#00A4DE"/>
		<stop  offset="0.27" style="stop-color:#019CD5"/>
		<stop  offset="0.47" style="stop-color:#0587BC"/>
		<stop  offset="0.72" style="stop-color:#0B6695"/>
		<stop  offset="1" style="stop-color:#143960"/>
	</linearGradient>
	<polygon style="fill:url(#SVGID_00000050653894272111478820000017135534824488630701_);" points="28.5,32.6 28.5,42.1 34.2,39.3 
		34.2,29.7 	"/>
</g>
</svg>
